<svg xmlns="http://www.w3.org/2000/svg" data-name="Layer 1" viewBox="0 0 512 512"><rect width="270" height="45.06" x="121.1" y="323.71" fill="#654a36" rx="10"/><path fill="#9f7855" d="M343.6,257h-175c-16.57,0-30,19.92-30,44.48v22.32h235V301.45C373.6,276.89,360.17,257,343.6,257Z"/><circle cx="256" cy="79.82" r="22.5" fill="#654a36"/><path fill="#b18c6b" d="M226.1,368.74h0a45,45,0,0,1-45,45H53.6a22.5,22.5,0,0,0-22.5,22.5h0a22.5,22.5,0,0,0,22.5,22.5H220.75a10,10,0,0,0,8.32-4.45L251.94,420a5,5,0,0,1,8.32,0l22.87,34.31a10,10,0,0,0,8.32,4.45h167a22.5,22.5,0,0,0,22.5-22.5h0a22.5,22.5,0,0,0-22.5-22.5H331.1a45,45,0,0,1-45-45h-60Z"/><path fill="#a1784f" d="M316.1 413.74h15a45 45 0 0 1-45-45h-15A45 45 0 0 0 316.1 413.74zM245.26 420a5 5 0 0 0-8.32 0l-22.87 34.31a10 10 0 0 1-8.32 4.45h15a10 10 0 0 0 8.32-4.45L248.6 425z"/><path fill="#ddccbf" d="M255.54,102.15h0c-49.29,0-139.18,101-89.24,154.86H345.9c49.94-53.82-40-154.86-89.24-154.86h-1.12Z"/><path fill="#b18c6b" d="M286.1,157.08H263.6v-25a7.5,7.5,0,1,0-15,0v25H226.1a7.5,7.5,0,0,0,0,15h22.5v55a7.5,7.5,0,1,0,15,0v-55h22.5a7.5,7.5,0,0,0,0-15Z"/><path fill="#070606" d="M458.4,406H331.1a37.56,37.56,0,0,1-36.74-30H381.1a17.52,17.52,0,0,0,17.5-17.5V333.46A17.52,17.52,0,0,0,381.1,316V301.19c0-21.94-9.34-40.3-22.93-48,12.67-19.58,13.17-44.86,1.15-72.42-16.16-37-51.94-71.36-83.05-82.54a30,30,0,1,0-40.34,0c-31.11,11.18-66.9,45.5-83.05,82.54-12,27.56-11.52,52.84,1.15,72.42-13.59,7.73-22.93,26.09-22.93,48V316a17.52,17.52,0,0,0-17.5,17.5v25.05A17.52,17.52,0,0,0,131.1,376h86.74a37.56,37.56,0,0,1-36.74,30H53.6a30,30,0,0,0,0,60H220.75a17.48,17.48,0,0,0,14.56-7.8L256.1,427l20.79,31.18a17.47,17.47,0,0,0,14.56,7.8h167a30,30,0,0,0,0-60ZM256.1,61a15,15,0,1,1-15,15A15,15,0,0,1,256.1,61ZM166.63,186.74c17-39,61.06-77.35,88.91-77.35h1.12c27.84,0,71.89,38.31,88.91,77.35,7.72,17.69,13.21,42.57-3.05,62.48H169.68C153.42,229.31,158.91,204.43,166.63,186.74ZM146.1,301.19c0-19.64,9.9-36.28,21.78-36.94H344.32c11.88.66,21.78,17.3,21.78,36.94V316h-220ZM131.1,361a2.5,2.5,0,0,1-2.5-2.5V333.46a2.5,2.5,0,0,1,2.5-2.5h6.62a8.49,8.49,0,0,0,.88.05h235a8.49,8.49,0,0,0,.88-.05h6.62a2.5,2.5,0,0,1,2.5,2.5v25.05a2.5,2.5,0,0,1-2.5,2.5H286.58l-.48,0h-60l-.49,0Zm327.3,90H291.45a2.48,2.48,0,0,1-2.08-1.12l-22.87-34.3a12.49,12.49,0,0,0-20.8,0l-22.87,34.3a2.51,2.51,0,0,1-2.08,1.12H53.6a15,15,0,0,1,0-30H181.1a52.58,52.58,0,0,0,52-45h46.08a52.58,52.58,0,0,0,52,45H458.4a15,15,0,0,1,0,30ZM226.1,171.82h22.5v55a7.5,7.5,0,1,0,15,0v-55h22.5a7.5,7.5,0,0,0,0-15H263.6v-25a7.5,7.5,0,1,0-15,0v25H226.1a7.5,7.5,0,1,0,0,15Z"/></svg>