<svg xmlns="http://www.w3.org/2000/svg" data-name="Layer 1" viewBox="0 0 512 512"><path fill="#3c3b41" d="M358.25,295.23h125.5A13.25,13.25,0,0,1,497,308.48v16.75a0,0,0,0,1,0,0H345a0,0,0,0,1,0,0V308.48A13.25,13.25,0,0,1,358.25,295.23Z"/><path fill="#8b8992" d="M468.31,247.24H373.69a10.78,10.78,0,0,0-10,6l-13,29c-2.77,6.23,2.41,13,10,13H481.26c7.55,0,12.73-6.74,10-13l-13-29A10.78,10.78,0,0,0,468.31,247.24Z"/><polygon fill="#c8c6cb" points="460.95 247.41 381.05 247.41 391.75 122.41 450.25 122.41 460.95 247.41"/><rect width="92.77" height="30" x="374.62" y="92.41" fill="#3c3b41" rx="9.2"/><path fill="#8b8992" d="M461.42,92.5H381.1l-1.45-1.39c-16.29-15.68-14-41,4.86-54L415.07,9.8a9.22,9.22,0,0,1,6.15-2.3h0a9.28,9.28,0,0,1,6.25,2.38l30.69,28.26c18.71,13.46,20.25,39.07,3.26,54.36Z"/><polygon fill="#3c3b41" points="384.92 36.93 403.25 55.83 419.18 39.66 402.02 22 384.92 36.93"/><path fill="#654a36" d="M220.44,418.27h136A13.74,13.74,0,0,1,370.17,432v16.26a0,0,0,0,1,0,0H206.7a0,0,0,0,1,0,0V432A13.74,13.74,0,0,1,220.44,418.27Z" transform="rotate(-48.6 288.4 433.253)"/><path fill="#9f7855" d="M271.08,350.13l-67.31,76.33a11.56,11.56,0,0,0-2.11,12.41l14.83,31.64c3.18,6.79,12.45,7.54,17.83,1.44L320,374.73c5.37-6.09,3.47-15.19-3.66-17.5l-33.25-10.75A11.54,11.54,0,0,0,271.08,350.13Z"/><polygon fill="#ddccbf" points="265.84 356.06 209 420.52 116.11 323.26 157.72 276.07 265.84 356.06"/><rect width="99.77" height="30" x="75.78" y="274.75" fill="#654a36" rx="9.55" transform="rotate(-48.6 125.647 289.737)"/><path fill="#9f7855" d="M83.52,198.87,111,223.06l-16,18.1L67.57,217,46.18,241.22l27.44,24.19-16,18.1-27.43-24.2L15,276.58l51.81,45.69a7.67,7.67,0,0,0,10.83-.69l73.6-83.46a7.69,7.69,0,0,0-.68-10.84L98.75,181.6Z"/><rect width="9.92" height="25.33" x="68.82" y="216.4" fill="#8a6743" transform="rotate(-48.6 73.767 229.051)"/><rect width="9.92" height="25.33" x="31.49" y="258.75" fill="#8a6743" transform="rotate(-48.6 36.429 271.384)"/><path fill="#070606" d="M175.49,202.27a7.49,7.49,0,0,1-7.5-7.5c0-48.47,15.8-94.11,44.51-128.5,29-34.77,67.75-53.93,109-53.93a7.5,7.5,0,0,1,0,15C245.13,27.34,183,102.45,183,194.77A7.5,7.5,0,0,1,175.49,202.27Z"/><path fill="#070606" d="M194.21,235.48a7.5,7.5,0,0,1-7.5-7.5c0-78.38,53.79-142.15,119.9-142.15a7.5,7.5,0,0,1,0,15c-57.84,0-104.9,57-104.9,127.15A7.5,7.5,0,0,1,194.21,235.48Z"/><path fill="#070606" d="M175.49,202.27a7.5,7.5,0,0,0,7.5-7.5c0-92.32,62.14-167.43,138.52-167.43a7.5,7.5,0,0,0,0-15c-41.26,0-80,19.16-109,53.93-28.71,34.39-44.51,80-44.51,128.5A7.49,7.49,0,0,0,175.49,202.27ZM186.71,228a7.5,7.5,0,0,0,15,0c0-70.11,47.06-127.15,104.9-127.15a7.5,7.5,0,0,0,0-15C240.5,85.83,186.71,149.6,186.71,228Zm311,65.15a15.81,15.81,0,0,0,.41-13.91l-12.95-29a18.22,18.22,0,0,0-16.81-10.44h-.48L458.42,129.9a16.71,16.71,0,0,0,16.46-16.69v-11.6a16.57,16.57,0,0,0-3-9.47,41.56,41.56,0,0,0,8.76-27.73,42.75,42.75,0,0,0-17.76-32.08l-30.37-28a16.89,16.89,0,0,0-22.48-.15l-30.22,27A42.93,42.93,0,0,0,361.4,62.77a41.62,41.62,0,0,0,8.88,29.1,16.62,16.62,0,0,0-3.16,9.74v11.6a16.71,16.71,0,0,0,16.46,16.69l-9.41,109.84h-.48a18.22,18.22,0,0,0-16.81,10.44l-12.95,29a15.81,15.81,0,0,0,.41,13.91,20.67,20.67,0,0,0-6.84,15.35v16.75a7.5,7.5,0,0,0,7.5,7.5H497a7.5,7.5,0,0,0,7.5-7.5V308.48A20.67,20.67,0,0,0,497.66,293.13Zm-96.1-260.7,8.82,9.33L402.74,49l-9.05-9.58ZM376.35,64a27.1,27.1,0,0,1,6-14.75L397,64.74a7.5,7.5,0,0,0,5.24,2.34h.22a7.5,7.5,0,0,0,5.15-2l18.55-17.53a7.52,7.52,0,0,0,.3-10.61L412.5,22.16l7.57-6.77a2,2,0,0,1,2.32,0l30.69,28.25a5.45,5.45,0,0,0,.7.57,27.88,27.88,0,0,1,11.92,21,26.56,26.56,0,0,1-7.26,19.7H384.06A26.6,26.6,0,0,1,376.35,64Zm5.77,49.22v-11.6A1.69,1.69,0,0,1,383.3,100h75.4a1.69,1.69,0,0,1,1.18,1.61v11.6a1.7,1.7,0,0,1-1.7,1.7H383.82A1.7,1.7,0,0,1,382.12,113.21Zm70.65,126.53H389.23l9.4-109.83h44.74Zm-95.14,45.59,12.95-29a3.4,3.4,0,0,1,3.11-1.55h5.8a7.38,7.38,0,0,0,1.56.17H461a7.38,7.38,0,0,0,1.56-.17h5.8a3.4,3.4,0,0,1,3.11,1.55l12.95,29a1,1,0,0,1-.11,1.06,3.43,3.43,0,0,1-2.82,1.34H360.56a3.43,3.43,0,0,1-2.82-1.34A1,1,0,0,1,357.63,285.33Zm131.87,32.4h-137v-9.25a5.76,5.76,0,0,1,5.75-5.75h125.5a5.76,5.76,0,0,1,5.75,5.75ZM358.71,376.26l-12.2-10.75a21.06,21.06,0,0,0-15.38-5.27c-.56,0-1.11.11-1.65.19a17.14,17.14,0,0,0-10.79-10.33l-33.26-10.76a19,19,0,0,0-20,5.83l-.68.77-96-71,.47-.54a17,17,0,0,0-1.52-24.05l-8.18-7.22a15.73,15.73,0,0,0-1.67-1.28,15.17,15.17,0,0,0-2.34-20.16L103.71,176a7.51,7.51,0,0,0-10.59.66L77.9,193.91a7.51,7.51,0,0,0,.66,10.59l21.81,19.23-6,6.84L72.53,211.34a7.5,7.5,0,0,0-10.59.67L40.56,236.26a7.5,7.5,0,0,0,.66,10.58L63,266.07l-6,6.85L35.19,253.69a7.51,7.51,0,0,0-10.59.66L9.37,271.62A7.51,7.51,0,0,0,10,282.21l51.81,45.68a15.18,15.18,0,0,0,20.29-.2,17.57,17.57,0,0,0,1.49,1.5l8.18,7.21a16.91,16.91,0,0,0,11.25,4.26c.36,0,.73,0,1.09,0a17,17,0,0,0,11.72-5.74l.47-.53,82.49,86.36-.68.78a19,19,0,0,0-3.28,20.55L209.7,473.7a17.16,17.16,0,0,0,11.61,9.41,21.2,21.2,0,0,0,7.16,16.26l12.2,10.76a7.51,7.51,0,0,0,10.59-.67L359.37,386.85a7.51,7.51,0,0,0-.66-10.59ZM82.11,305.13c-.13.15-.24.31-.37.46l-9.72,11a.18.18,0,0,1-.25,0L25.59,275.92l5.3-6L52.7,289.13a7.51,7.51,0,0,0,10.59-.66l16-18.1a7.5,7.5,0,0,0-.67-10.59L56.77,240.55l11.46-13L90,246.78a7.5,7.5,0,0,0,10.59-.66l16-18.1a7.49,7.49,0,0,0-.67-10.58L94.11,198.21l5.31-6,46.18,40.72a.2.2,0,0,1,0,.25l-9.73,11c-.13.15-.28.28-.41.42Zm28.37,13.17-.1.14L104.62,325a2,2,0,0,1-1.41.69,2.09,2.09,0,0,1-1.48-.51l-8.18-7.21a2,2,0,0,1-.33-2.68l53.69-60.9a2.11,2.11,0,0,1,1.22-.52h.13a2,2,0,0,1,1.35.51l8.18,7.22a2,2,0,0,1,.19,2.88L152.22,271a1.59,1.59,0,0,0-.13.13Zm15.81,4.76L158.8,286.2l96,71-46,52.2ZM225,468.57a2.06,2.06,0,0,1-1.71-1.24l-14.84-31.65a4.15,4.15,0,0,1,1-4.26l67.3-76.33a4.16,4.16,0,0,1,4.12-1.48l33.25,10.76a2.05,2.05,0,0,1,1.44,1.55,4.22,4.22,0,0,1-1.09,3.85L228.69,467A4.27,4.27,0,0,1,225,468.57Zm20,25.34-6.58-5.79a6.27,6.27,0,0,1-.55-8.81l89.94-102a6.2,6.2,0,0,1,4.29-2.1h.4a6.17,6.17,0,0,1,4.12,1.56l6.57,5.79Z"/></svg>