<svg xmlns="http://www.w3.org/2000/svg" data-name="Layer 1" viewBox="0 0 512 512"><path fill="#3c3b41" d="M307.2,474.44H488.8a15.7,15.7,0,0,1,15.7,15.7V504.5a0,0,0,0,1,0,0h-213a0,0,0,0,1,0,0V490.14A15.7,15.7,0,0,1,307.2,474.44Z"/><path fill="#8b8992" d="M464.3,398.58H331.7a15,15,0,0,0-13.95,9.49L299.61,454a15,15,0,0,0,13.95,20.51H482.44A15,15,0,0,0,496.39,454l-18.14-45.92A15,15,0,0,0,464.3,398.58Z"/><polygon fill="#c8c6cb" points="453.99 398.63 342.01 398.63 357.01 215.58 438.99 215.58 453.99 398.63"/><rect width="130" height="30" x="333" y="185.56" fill="#3c3b41" rx="10.9"/><path fill="#8b8992" d="M450.75,85.8v47.66H419.32V85.8H377.19v47.66H345.75V85.8h-30v90a10,10,0,0,0,10,10h145a10,10,0,0,0,10-10v-90Z"/><path fill="#c8c6cb" d="M155.45,40.43H127.94V12.5a5,5,0,0,0-5-5H105.06a5,5,0,0,0-5,5V40.43H72.55a5,5,0,0,0-5,5V62.68a5,5,0,0,0,5,5h27.51v36.16h27.88V67.68h27.51a5,5,0,0,0,5-5V45.43A5,5,0,0,0,155.45,40.43Z"/><path fill="#8b8992" d="M158.46,103.84H69.07a15,15,0,0,0-14.45,19L72,185.56h82l18.83-62.39A15,15,0,0,0,158.46,103.84Z"/><path fill="#3c3b41" d="M23.2,474.44H204.8a15.7,15.7,0,0,1,15.7,15.7V504.5a0,0,0,0,1,0,0H7.5a0,0,0,0,1,0,0V490.14A15.7,15.7,0,0,1,23.2,474.44Z"/><path fill="#8b8992" d="M180.3,398.58H47.7a15,15,0,0,0-14,9.49L15.61,454a15,15,0,0,0,14,20.51H198.44A15,15,0,0,0,212.39,454l-18.14-45.92A15,15,0,0,0,180.3,398.58Z"/><rect width="130" height="30" x="49" y="185.56" fill="#3c3b41" rx="10.9"/><polygon fill="#c8c6cb" points="169.99 398.57 58.01 398.57 73.01 215.52 154.99 215.52 169.99 398.57"/><path fill="#3c3b41" d="M165.17,148.52a7.16,7.16,0,0,0-1.61-.18H64.44a7.34,7.34,0,0,0-2.62.48l4,14.52H160.7Z"/><path fill="#2a2a2c" d="M163.56,148.34h-15a7.16,7.16,0,0,1,1.61.18l-4.47,14.82h15l4.47-14.82A7.16,7.16,0,0,0,163.56,148.34Z"/><path d="M310.35 338.36l-28.07-28.07a7.5 7.5 0 0 0-10.6 10.61l15.92 15.92H207a7.5 7.5 0 0 0 0 15h79.33l-14.6 14.6A7.5 7.5 0 1 0 282.28 377l25.91-25.91a7.49 7.49 0 0 0 4.36-6.8c0-.11 0-.21 0-.32s0-.22 0-.34A7.49 7.49 0 0 0 310.35 338.36zM200.94 253.23l-.22.3c-.08.11-.14.23-.21.34s-.12.19-.17.29-.11.23-.17.35-.1.21-.14.31-.09.24-.13.35-.09.23-.12.35-.06.24-.09.36a3.58 3.58 0 0 0-.09.35c0 .14 0 .28-.07.42s0 .2 0 .3a7.42 7.42 0 0 0 0 1.49c0 .1 0 .2 0 .3s0 .28.07.42.06.24.09.36.05.24.09.36.08.22.12.34.08.23.13.35.09.21.14.31.11.24.17.35a2.75 2.75 0 0 0 .17.29 3.87 3.87 0 0 0 .21.34 3.3 3.3 0 0 0 .22.3 3.15 3.15 0 0 0 .22.29c.13.16.27.31.41.46l.08.09 28.07 28.07a7.5 7.5 0 0 0 10.6-10.61L225.06 265.2h80a7.5 7.5 0 0 0 0-15h-80l15.26-15.27a7.5 7.5 0 0 0-10.6-10.6l-28.07 28.06-.08.09c-.14.15-.28.3-.41.46A3.15 3.15 0 0 0 200.94 253.23z"/><path fill="#070606" d="M199.53,258.74c0,.14,0,.28.07.42s.06.24.09.36.05.24.09.36.08.22.12.34.08.23.13.35.09.21.14.31.11.24.17.35a2.75,2.75,0,0,0,.17.29,3.87,3.87,0,0,0,.21.34,3.3,3.3,0,0,0,.22.3,3.15,3.15,0,0,0,.22.29c.13.16.27.31.41.46l.08.09,28.07,28.07a7.5,7.5,0,0,0,10.6-10.61L225.06,265.2h80a7.5,7.5,0,0,0,0-15h-80l15.26-15.27a7.5,7.5,0,0,0-10.6-10.6l-28.07,28.06-.08.09c-.14.15-.28.3-.41.46a3.15,3.15,0,0,0-.22.29l-.22.3c-.08.11-.14.23-.21.34s-.12.19-.17.29-.11.23-.17.35-.1.21-.14.31-.09.24-.13.35-.09.23-.12.35-.06.24-.09.36a3.58,3.58,0,0,0-.09.35c0,.14,0,.28-.07.42s0,.2,0,.3a7.42,7.42,0,0,0,0,1.49C199.5,258.54,199.52,258.64,199.53,258.74ZM501.81,471a22.48,22.48,0,0,0,1.56-19.72l-18.15-45.92a22.36,22.36,0,0,0-20.92-14.23h-3.41l-13.76-168h5a18.41,18.41,0,0,0,18.4-18.39v-8.21a17.9,17.9,0,0,0-.5-4.17h.5a17.52,17.52,0,0,0,17.5-17.5v-90a7.5,7.5,0,0,0-7.5-7.5h-30a7.5,7.5,0,0,0-7.5,7.5V125H426.56V84.79a7.49,7.49,0,0,0-7.5-7.5H376.94a7.49,7.49,0,0,0-7.5,7.5V125H353V84.79a7.5,7.5,0,0,0-7.5-7.5h-30a7.5,7.5,0,0,0-7.5,7.5v90a17.52,17.52,0,0,0,17.5,17.5h.5a17.9,17.9,0,0,0-.5,4.17v8.21a18.41,18.41,0,0,0,18.4,18.39h5l-13.76,168H331.7a22.36,22.36,0,0,0-20.92,14.23l-18.15,45.92A22.48,22.48,0,0,0,294.19,471,23.16,23.16,0,0,0,284,490.14V504.5a7.5,7.5,0,0,0,7.5,7.5h213a7.5,7.5,0,0,0,7.5-7.5V490.14A23.16,23.16,0,0,0,501.81,471ZM325.5,177.29a2.5,2.5,0,0,1-2.5-2.5V92.29h15v40.16a7.5,7.5,0,0,0,7.5,7.5h31.44a7.5,7.5,0,0,0,7.5-7.5V92.29h27.12v40.16a7.5,7.5,0,0,0,7.5,7.5H450.5a7.5,7.5,0,0,0,7.5-7.5V92.29h15v82.5a2.5,2.5,0,0,1-2.5,2.5Zm18.4,30.77a3.4,3.4,0,0,1-3.4-3.39v-8.21a3.4,3.4,0,0,1,3.4-3.4H452.1a3.4,3.4,0,0,1,3.4,3.4v8.21a3.4,3.4,0,0,1-3.4,3.39Zm101.94,183H350.16l13.76-168h68.16ZM306.58,456.74l18.15-45.92a7.45,7.45,0,0,1,7-4.74h9.43a8.65,8.65,0,0,0,.88.05H454a8.65,8.65,0,0,0,.88-.05h9.43a7.45,7.45,0,0,1,7,4.74l18.15,45.92a7.49,7.49,0,0,1-6,10.2H312.62a7.49,7.49,0,0,1-6-10.2ZM497,497H299v-6.86a8.21,8.21,0,0,1,8.2-8.2H312q.75.06,1.53.06H482.44q.78,0,1.53-.06h4.83a8.21,8.21,0,0,1,8.2,8.2ZM217.81,471a22.48,22.48,0,0,0,1.56-19.72l-18.15-45.92a22.36,22.36,0,0,0-20.92-14.23h-3.4l-13.77-168h5a18.41,18.41,0,0,0,18.4-18.39v-8.21a18.42,18.42,0,0,0-18.4-18.4h-4l5.27-17.46a7.48,7.48,0,0,0,1.7-4.76,6.34,6.34,0,0,0,0-.76L185.83,106a7.5,7.5,0,0,0-7.18-9.67H135.44V75.18h25a7.5,7.5,0,0,0,7.5-7.5V40.43a7.49,7.49,0,0,0-7.5-7.5h-25V7.5a7.5,7.5,0,0,0-7.5-7.5H100.06a7.5,7.5,0,0,0-7.5,7.5V32.93h-25a7.49,7.49,0,0,0-7.5,7.5V67.68a7.5,7.5,0,0,0,7.5,7.5h25V96.34H49.35a7.5,7.5,0,0,0-7.23,9.5l20,72.22H59.9a18.42,18.42,0,0,0-18.4,18.4v8.21a18.41,18.41,0,0,0,18.4,18.39h5l-13.77,168H47.7a22.36,22.36,0,0,0-20.92,14.23L8.63,451.23A22.48,22.48,0,0,0,10.19,471,23.16,23.16,0,0,0,0,490.14V504.5A7.5,7.5,0,0,0,7.5,512h213a7.5,7.5,0,0,0,7.5-7.5V490.14A23.16,23.16,0,0,0,217.81,471ZM75.05,60.18V47.93h25a7.5,7.5,0,0,0,7.5-7.5V15h12.88V40.43a7.5,7.5,0,0,0,7.5,7.5h25V60.18h-25a7.5,7.5,0,0,0-7.5,7.5V96.34H107.56V67.68a7.5,7.5,0,0,0-7.5-7.5ZM59.21,111.34H168.55l-11.16,37H69.47Zm93.65,52-4.44,14.72H77.71l-4.08-14.72Zm-93,44.72a3.4,3.4,0,0,1-3.4-3.39v-8.21a3.4,3.4,0,0,1,3.4-3.4H168.1a3.4,3.4,0,0,1,3.4,3.4v8.21a3.4,3.4,0,0,1-3.4,3.39H155.78c-.26,0-.52,0-.79,0H73c-.27,0-.53,0-.79,0Zm101.95,183H66.15l13.77-168h68.16ZM22.58,456.74l18.15-45.92a7.45,7.45,0,0,1,7-4.74H180.3a7.45,7.45,0,0,1,7,4.74l18.15,45.92a7.49,7.49,0,0,1-6,10.2H28.62a7.49,7.49,0,0,1-6-10.2ZM213,497H15v-6.86a8.21,8.21,0,0,1,8.2-8.2H28q.75.06,1.53.06H198.44q.78,0,1.53-.06h4.83a8.21,8.21,0,0,1,8.2,8.2Zm99.55-152.68c0-.11,0-.21,0-.32s0-.22,0-.34a7.49,7.49,0,0,0-2.2-5.3l-28.07-28.07a7.5,7.5,0,0,0-10.6,10.61l15.92,15.92H207a7.5,7.5,0,0,0,0,15h79.33l-14.6,14.6A7.5,7.5,0,1,0,282.28,377l25.91-25.91A7.49,7.49,0,0,0,312.55,344.32Z"/></svg>