<svg xmlns="http://www.w3.org/2000/svg" data-name="Layer 1" viewBox="0 0 512 512"><rect width="305" height="485" x="103.5" y="13.5" fill="#959cca" rx="34.88"/><path fill="#19181c" d="M373.62,506H138.38A42.43,42.43,0,0,1,96,463.62V48.38A42.43,42.43,0,0,1,138.38,6H373.62A42.43,42.43,0,0,1,416,48.38V463.62A42.43,42.43,0,0,1,373.62,506ZM138.38,21A27.41,27.41,0,0,0,111,48.38V463.62A27.41,27.41,0,0,0,138.38,491H373.62A27.41,27.41,0,0,0,401,463.62V48.38A27.41,27.41,0,0,0,373.62,21Z"/><path fill="#2a2a2c" d="M298.5,476h-85a7.5,7.5,0,0,1,0-15h85a7.5,7.5,0,0,1,0,15Z"/><path d="M298.5,461h-15a7.5,7.5,0,0,1,0,15h15a7.5,7.5,0,0,0,0-15Z"/><path fill="#070606" d="M338.5,13.81h0c0,16.57-3.89,30-8.68,30H182.18c-4.79,0-8.68-13.43-8.68-30h165Z"/><path d="M323.5,13.81h0c0,16.57-3.89,30-8.68,30h15c4.79,0,8.68-13.43,8.68-30h-15Z"/><path fill="#3c3b41" d="M350.81,394.82H173.9a5,5,0,0,0-4.68,3.23l-8,21.14a5,5,0,0,0,4.68,6.76H358.78a5,5,0,0,0,4.68-6.76l-8-21.14A5,5,0,0,0,350.81,394.82Z"/><path fill="#8b8992" d="M322.82,363.72H201.89a20.73,20.73,0,0,0-20.73,20.73v10.41H343.55V384.45A20.73,20.73,0,0,0,322.82,363.72Z"/><path fill="#c8c6cb" d="M274.08,232.9l6.48,22.93A103.64,103.64,0,0,0,312,306l30.72,27.05v-.13l.87,30.8H181.16l-10.88-25a172.77,172.77,0,0,1,19.2-202.92,101.35,101.35,0,0,1,23.36-19.31l50.4-30.49v32.23l98.1,86.89L345.93,229l-31.19-14.37v0h0c-28.1,24.66-65.19,24.66-93.29,0h0Z"/><path fill="#3c3b41" d="M161.31,321.55h24.14a7.5,7.5,0,0,0,0-15H158.09a7.12,7.12,0,0,0-2.58.47Z"/><path fill="#2a2a2c" d="M185.45,306.55h-15a7.5,7.5,0,0,1,0,15h15a7.5,7.5,0,0,0,0-15Z"/><path fill="#3c3b41" d="M150.67,290.43l.66,0h44.49a7.5,7.5,0,0,0,0-15H151.33a7.38,7.38,0,0,0-3.41.83Z"/><path fill="#2a2a2c" d="M195.82,275.46h-15a7.5,7.5,0,0,1,0,15h15a7.5,7.5,0,0,0,0-15Z"/><path fill="#3c3b41" d="M146.21,259.25a6.25,6.25,0,0,0,1.23.11h58.74a7.5,7.5,0,0,0,0-15H147.44a7.34,7.34,0,0,0-1.34.12Z"/><path fill="#2a2a2c" d="M206.18,244.36h-15a7.5,7.5,0,0,1,0,15h15a7.5,7.5,0,0,0,0-15Z"/><circle cx="256" cy="166.55" r="15" fill="#3c3b41"/><path fill="#2a2a2c" d="M256,151.55a15,15,0,0,0-7.5,2,15,15,0,0,1,0,26,15,15,0,1,0,7.5-28Z"/><path fill="#070606" d="M361.29,392.17a7.5,7.5,0,0,0-7-4.85h-3.22v-2.87a28.14,28.14,0,0,0-3.84-14.19,7.7,7.7,0,0,0,1.71-1.31,7.45,7.45,0,0,0,2.12-5.44l-.87-30.8a7.47,7.47,0,0,0-3.5-6.14l-29.75-26.2a95.93,95.93,0,0,1-29.14-46.58L283.58,239a79.68,79.68,0,0,0,32.34-15.52l26.87,12.38a7.48,7.48,0,0,0,9.43-2.74l15.42-23.82a7.51,7.51,0,0,0-1.32-9.69l-95.58-84.65V86.05a7.51,7.51,0,0,0-11.38-6.42L209,110.13a108.42,108.42,0,0,0-25.09,20.75,180.43,180.43,0,0,0-32.72,186l.06.13a181.8,181.8,0,0,0,12.38,25.18l10.7,24.52a7.48,7.48,0,0,0,3.22,3.53,28.09,28.09,0,0,0-3.85,14.2v2.87h-3.22a7.5,7.5,0,0,0-7,4.85L151.69,423.3a7.5,7.5,0,0,0,7,10.15H366a7.5,7.5,0,0,0,7-10.14ZM177.15,335.78a6.58,6.58,0,0,0-.42-.84q-3.91-6.58-7.16-13.39h15.88a7.5,7.5,0,0,0,0-15H163.27a162.82,162.82,0,0,1-4.93-16.09h37.48a7.5,7.5,0,0,0,0-15H155.29c-.82-5.35-1.39-10.72-1.68-16.1h52.57a7.5,7.5,0,0,0,0-15H153.46a164.73,164.73,0,0,1,41.63-103.53A94,94,0,0,1,216.72,123l39-23.61v18.93a7.51,7.51,0,0,0,2.53,5.62l93.27,82.61-8.38,13-25.28-11.65a7.49,7.49,0,0,0-8.27,1.37C298.7,218.7,286.43,224.11,274,225.4a7.85,7.85,0,0,0-1.18.11c-16.06,1.34-32.37-4.16-46.41-16.48a7.5,7.5,0,0,0-9.89,11.28c15.43,13.54,33.51,20.31,51.59,20.31h.38l4.86,17.21A110.86,110.86,0,0,0,307,311.63l28.27,24.89.55,19.7H186.07Zm158.9,48.67v2.87H188.66v-2.87a13.25,13.25,0,0,1,13.23-13.23H322.82A13.25,13.25,0,0,1,336.05,384.45Zm-166.51,34,6.09-16.13h4.76c.25,0,.51,0,.77,0H343.55c.26,0,.51,0,.77,0h4.76l6.08,16.13ZM298.5,461h-85a7.5,7.5,0,0,0,0,15h85a7.5,7.5,0,0,0,0-15ZM256,181.55a15,15,0,1,0-15-15A15,15,0,0,0,256,181.55ZM373.62,6H138.38A42.43,42.43,0,0,0,96,48.38V463.62A42.43,42.43,0,0,0,138.38,506H373.62A42.43,42.43,0,0,0,416,463.62V48.38A42.43,42.43,0,0,0,373.62,6ZM330.7,21.31c-.61,7.48-2,12.69-3.16,15H184.46c-1.12-2.31-2.55-7.52-3.16-15ZM401,463.62A27.41,27.41,0,0,1,373.62,491H138.38A27.41,27.41,0,0,1,111,463.62V48.38A27.41,27.41,0,0,1,138.38,21h27.86c.77,11.85,3.9,30.31,15.94,30.31H329.82c12,0,15.17-18.46,15.94-30.31h27.86A27.41,27.41,0,0,1,401,48.38Z"/></svg>