<svg xmlns="http://www.w3.org/2000/svg" data-name="Layer 1" viewBox="0 0 512 512"><path fill="#8b8992" d="M174.93,429.36q-8.79-4.07-17.09-9l-39.09,27.14L60,388.73l27.72-39.92a191.73,191.73,0,0,1-18.88-47l-48.47-8.74V209.9l49.88-9a192.28,192.28,0,0,1,19-44.48L60,114.23l58.8-58.8,43,29.88a192,192,0,0,1,43.3-17.72l9.34-51.79h83.16l9.34,51.79a192,192,0,0,1,43.3,17.72l43-29.88,58.8,58.8-29.29,42.19a192.28,192.28,0,0,1,19,44.48l49.88,9v83.16l-48.47,8.74a191.73,191.73,0,0,1-18.88,47l27.72,39.92-58.8,58.8-39.09-27.14q-8.3,4.89-17.09,9L299.77,475V475H212.24V475Z"/><path fill="#78777f" d="M146.78 85.31c2.8-1.57 5.66-3.06 8.54-4.49L118.75 55.43l-6.15 6.14zM142.84 420.39l-30.24 21 6.15 6.15L151.16 425Q146.95 422.8 142.84 420.39z"/><path fill="#5b422b" d="M306,205.08H291a10.52,10.52,0,0,1,10.52,10.51v9A10.52,10.52,0,0,1,291,235.08h15a10.52,10.52,0,0,0,10.52-10.51v-9A10.52,10.52,0,0,0,306,205.08Z"/><path fill="#fff" d="M328.67,203.82A88.32,88.32,0,0,1,302,329.39H210a88.32,88.32,0,0,1-26.71-125.57Z"/><path fill="#654a36" d="M172,475H340a15.13,15.13,0,0,1,15.13,15.13V505a0,0,0,0,1,0,0H156.88a0,0,0,0,1,0,0V490.15A15.13,15.13,0,0,1,172,475Z"/><path fill="#9f7855" d="M212.24,475H177.41a10.08,10.08,0,0,1-1.11-.05,14,14,0,0,1-11.88-19l10.51-26.59,6.38-16.15a14,14,0,0,1,13-8.83H317.7a14,14,0,0,1,13,8.83l6.38,16.15L347.58,456a14,14,0,0,1-11.88,19,10.08,10.08,0,0,1-1.11.05H212.24Z"/><polygon fill="#ddccbf" points="308.11 404.43 203.89 404.43 217.85 234.06 294.15 234.06 308.11 404.43"/><rect width="120.99" height="30" x="195.5" y="205.08" fill="#654a36" rx="10.51"/><path fill="#9f7855" d="M304.86,112v44.36H275.6V112H236.4v44.36H207.14V112H179.22v83.76a9.3,9.3,0,0,0,9.3,9.31h135a9.3,9.3,0,0,0,9.3-9.31V112Z"/><path fill="#070606" d="M493,203.05l-45.34-8.18a200.49,200.49,0,0,0-16.05-37.54L458.21,119a7.49,7.49,0,0,0-.86-9.58l-58.8-58.8a7.49,7.49,0,0,0-9.58-.86L349.74,77a200.25,200.25,0,0,0-36.27-14.84L305,15a7.5,7.5,0,0,0-7.38-6.17H214.42A7.5,7.5,0,0,0,207,15l-8.51,47.2A200.25,200.25,0,0,0,162.26,77L123,49.79a7.49,7.49,0,0,0-9.58.86l-58.8,58.8a7.49,7.49,0,0,0-.86,9.58l26.59,38.3a200.49,200.49,0,0,0-16,37.54L19,203.05a7.5,7.5,0,0,0-6.17,7.38v83.15A7.5,7.5,0,0,0,19,301l43.78,7.91a200,200,0,0,0,16.09,40L53.79,385a7.49,7.49,0,0,0,.86,9.58l58.8,58.8a7.49,7.49,0,0,0,9.58.86l35.19-24.44q3.18,1.77,6.42,3.44l-7.7,19.49a21.44,21.44,0,0,0,1.5,18.82,22.62,22.62,0,0,0-9.06,18.1V504.5a7.5,7.5,0,0,0,7.5,7.5H355.12a7.5,7.5,0,0,0,7.5-7.5V489.63A22.62,22.62,0,0,0,352.83,471a21.4,21.4,0,0,0,1.21-18.3l-7.53-19.07c2.45-1.24,4.88-2.52,7.27-3.86L389,454.22a7.49,7.49,0,0,0,9.58-.86l58.8-58.8a7.49,7.49,0,0,0,.86-9.58l-25.07-36.1a200,200,0,0,0,16.09-40L493,301a7.5,7.5,0,0,0,6.17-7.38V210.43A7.5,7.5,0,0,0,493,203.05ZM347.62,489.63V497H164.38v-7.37A7.64,7.64,0,0,1,172,482h3.45c.47,0,1,.05,1.44.05H334.09c.48,0,1,0,1.44-.05H340A7.64,7.64,0,0,1,347.62,489.63ZM206.76,164.34H236a7.5,7.5,0,0,0,7.5-7.5V120h24.2v36.86a7.5,7.5,0,0,0,7.5,7.5h29.26a7.5,7.5,0,0,0,7.5-7.5V120H324.9v76.26a1.81,1.81,0,0,1-1.8,1.81h-135a1.81,1.81,0,0,1-1.8-1.81V120h12.92v36.86A7.5,7.5,0,0,0,206.76,164.34ZM206,228.11a3,3,0,0,1-3-3v-9a3,3,0,0,1,3-3H306a3,3,0,0,1,3,3v9a3,3,0,0,1-3,3ZM300,396.39h-87.9l5.48-66.07v0l7.23-87.12h62.48l7.23,87.12v0Zm6-153.28a18,18,0,0,0,18-18v-9a17.61,17.61,0,0,0-.29-3.1c.52,0,1-.06,1.55-.13a80.83,80.83,0,0,1-16.92,103.19l-6-73ZM186.7,213a13.74,13.74,0,0,0,1.44.08h.15a17.27,17.27,0,0,0-.29,3.07v9a18,18,0,0,0,18,18h3.69l-6.05,73A80.81,80.81,0,0,1,186.7,213Zm17.19,198.54H308.11a7.17,7.17,0,0,0,1.31-.12h7.78a6.43,6.43,0,0,1,6,4.09l16.88,42.74a6.46,6.46,0,0,1-5.18,8.78H176.08a6.47,6.47,0,0,1-5.19-8.78l10.34-26.16,0-.08,6.52-16.5a6.42,6.42,0,0,1,6-4.09h8.79A7.17,7.17,0,0,0,203.89,411.51Zm280.29-124.2L441.88,295a7.51,7.51,0,0,0-5.94,5.53,184.3,184.3,0,0,1-18.14,45.17,7.5,7.5,0,0,0,.37,8l24.14,34.77-49.93,49.93-33.94-23.57a7.5,7.5,0,0,0-8.1-.29q-4.59,2.7-9.37,5.16L337.16,410a21.36,21.36,0,0,0-20-13.57H315l-5.19-62.63a95.77,95.77,0,0,0,27.9-129.25,16.68,16.68,0,0,0,2.19-8.27V112.48a7.5,7.5,0,0,0-7.5-7.5H304.48a7.5,7.5,0,0,0-7.5,7.5v36.86H282.72V112.48a7.49,7.49,0,0,0-7.5-7.5H236a7.49,7.49,0,0,0-7.5,7.5v36.86H214.26V112.48a7.5,7.5,0,0,0-7.5-7.5H178.84a7.49,7.49,0,0,0-7.5,7.5v83.76a16.71,16.71,0,0,0,2.57,8.9,95.77,95.77,0,0,0,28.28,128.62L197,396.39h-3.21a21.35,21.35,0,0,0-20,13.57l-3.64,9.23q-4.33-2.26-8.53-4.73a7.5,7.5,0,0,0-8.1.29l-33.94,23.57L69.69,388.39l24.14-34.77a7.5,7.5,0,0,0,.37-8,184.3,184.3,0,0,1-18.14-45.17A7.51,7.51,0,0,0,70.12,295l-42.3-7.64V216.7l43.71-7.89a7.49,7.49,0,0,0,5.88-5.32,185.39,185.39,0,0,1,18.3-42.76,7.49,7.49,0,0,0-.31-8.07l-25.71-37,49.93-49.93L157.5,92a7.49,7.49,0,0,0,7.94.39,184.39,184.39,0,0,1,41.61-17,7.5,7.5,0,0,0,5.41-5.91l8.23-45.63h70.62l8.23,45.63A7.5,7.5,0,0,0,305,75.36a184.39,184.39,0,0,1,41.61,17A7.49,7.49,0,0,0,354.5,92l37.88-26.3,49.93,49.93-25.71,37a7.49,7.49,0,0,0-.31,8.07,185.39,185.39,0,0,1,18.3,42.76,7.49,7.49,0,0,0,5.88,5.32l43.71,7.89Z"/></svg>