<svg xmlns="http://www.w3.org/2000/svg" data-name="Layer 1" viewBox="0 0 512 512"><path fill="#f7dca6" d="M170.59,477V395.3H132.18c-16.56,0-30-13.07-30-29.2V315.28a11.19,11.19,0,0,0-11.34-11H43.82A5.52,5.52,0,0,1,39,295.88l56.8-92.23a65.38,65.38,0,0,0,8.63-22.47l9.85-53.88v0c2.32-81.76,165.86-135.63,244.25-76V493.51H187.59A16.79,16.79,0,0,1,170.59,477Z"/><path fill="#654a36" d="M254.4,452.88H456.48a17.37,17.37,0,0,1,17.37,17.37V486a0,0,0,0,1,0,0H237a0,0,0,0,1,0,0V470.25A17.37,17.37,0,0,1,254.4,452.88Z"/><path fill="#9f7855" d="M429.15,382.43H281.72c-6.85,0-13,3.49-15.51,8.81L246,433.88c-4.32,9.14,3.75,19,15.51,19H449.33c11.77,0,19.83-9.9,15.51-19l-20.18-42.64C442.15,385.92,436,382.43,429.15,382.43Z"/><polygon fill="#ddccbf" points="417.69 382.48 293.18 382.48 309.86 212.51 401.01 212.51 417.69 382.48"/><rect width="144.54" height="33.12" x="283.16" y="179.39" fill="#654a36" rx="12.07"/><path fill="#9f7855" d="M413.81,86.58v44.26H378.86V86.58H332v44.26h-35V86.58H263.71v83.57c0,5.13,5,9.28,11.11,9.28H436.05c6.14,0,11.12-4.15,11.12-9.28V86.58Z"/><path fill="#070606" d="M115.25,182.38l9.63-53.84a7.39,7.39,0,0,0,.12-1.48c1-29,24.7-57.18,63.47-75.48,45.22-21.34,114-28.68,158.13,5.66a7.5,7.5,0,1,0,9.21-11.84c-22-17.13-51.24-26.42-84.53-26.88A206.59,206.59,0,0,0,182.07,38c-20.59,9.71-38,22.47-50.4,36.89-13.54,15.78-21,33.61-21.66,51.59l-9.52,53.24A58.34,58.34,0,0,1,93,199.64L37.51,291.8a13,13,0,0,0,11.17,19.72h46a3.56,3.56,0,0,1,3.58,3.53v50.78A36.77,36.77,0,0,0,135,402.51h30V486a7.5,7.5,0,0,0,15,0V395a7.5,7.5,0,0,0-7.5-7.5H135a21.76,21.76,0,0,1-21.78-21.68V315.05a18.58,18.58,0,0,0-18.58-18.53H52.18l53.68-89.15A73.15,73.15,0,0,0,115.25,182.38ZM469.53,451.26a20.22,20.22,0,0,0,1.17-19.09L451,388.61c-3.69-8.17-12.31-13.44-22-13.44h-4.39L409.78,216.88h6.47a19.09,19.09,0,0,0,18.86-19.27v-7.45a19.65,19.65,0,0,0-.4-3.94h1.05c10.12,0,18.36-7.69,18.36-17.15V83.71a7.59,7.59,0,0,0-7.5-7.67H414a7.59,7.59,0,0,0-7.5,7.67v37.54H387.38V83.71a7.59,7.59,0,0,0-7.5-7.67H334.11a7.59,7.59,0,0,0-7.5,7.67v37.54H307.46V83.71A7.59,7.59,0,0,0,300,76H267.37a7.59,7.59,0,0,0-7.5,7.67v85.36c0,9.46,8.24,17.15,18.36,17.15h1a19.65,19.65,0,0,0-.4,3.94v7.45a19.09,19.09,0,0,0,18.86,19.27h6.47L289.36,375.17H285c-9.65,0-18.27,5.27-22,13.44l-19.72,43.56a20.22,20.22,0,0,0,1.17,19.09,24.53,24.53,0,0,0-10.66,20.3v14a7.59,7.59,0,0,0,7.5,7.67H472.7a7.59,7.59,0,0,0,7.5-7.67v-14A24.52,24.52,0,0,0,469.53,451.26ZM278.23,170.89c-2.05,0-3.36-1.2-3.36-1.82V91.38h17.59v37.53a7.59,7.59,0,0,0,7.5,7.67h34.15a7.59,7.59,0,0,0,7.5-7.67V91.38h30.77v37.53a7.59,7.59,0,0,0,7.5,7.67H414a7.59,7.59,0,0,0,7.5-7.67V91.38h17.59v77.69c0,.62-1.31,1.82-3.36,1.82H278.23Zm19.51,30.66a3.91,3.91,0,0,1-3.86-3.94v-7.45a3.91,3.91,0,0,1,3.83-3.94H416.28a3.91,3.91,0,0,1,3.83,3.94v7.45a3.91,3.91,0,0,1-3.86,3.94ZM409.57,375.17H304.43L319.28,216.9h75.43ZM256.91,438.61l19.71-43.56c1.21-2.68,4.65-4.55,8.35-4.55H429c3.7,0,7.14,1.87,8.35,4.55l19.71,43.56a4.69,4.69,0,0,1-.35,4.67,9.24,9.24,0,0,1-8,3.89H265.26a9.25,9.25,0,0,1-8-3.89A4.69,4.69,0,0,1,256.91,438.61ZM465.2,477.85H248.8v-6.29a9,9,0,0,1,8.84-9H456.35a9,9,0,0,1,8.85,9Z"/></svg>