<svg xmlns="http://www.w3.org/2000/svg" data-name="Layer 1" viewBox="0 0 512 512"><path fill="#78777f" d="M33.5,444.5h445a0,0,0,0,1,0,0v35a25,25,0,0,1-25,25H58.5a25,25,0,0,1-25-25v-35A0,0,0,0,1,33.5,444.5Z"/><rect width="15" height="15" x="64.69" y="467" fill="#171719" rx="7.5"/><rect width="15" height="15" x="94.69" y="467" fill="#171719" rx="7.5"/><rect width="15" height="15" x="124.69" y="467" fill="#171719" rx="7.5"/><path fill="#3c3b41" d="M184.72 444.51H312.28a0 0 0 0 1 0 0V462.9a10 10 0 0 1-10 10H194.72a10 10 0 0 1-10-10V444.51A0 0 0 0 1 184.72 444.51zM228.08 209.5H63.5a15 15 0 0 0-15 15v220h415v-220a15 15 0 0 0-15-15H228.08z"/><polygon fill="#c8c6cb" points="369.99 236.66 436 236.66 436 444.5 76 444.5 76 236.66 214.78 236.66 369.99 236.66"/><path fill="#725537" d="M154.09,353.3H344.28a5,5,0,0,1,4.68,3.23l8.81,23.38a5,5,0,0,1-4.68,6.77H145.28a5,5,0,0,1-4.68-6.77l8.81-23.38A5,5,0,0,1,154.09,353.3Z"/><path fill="#9f7855" d="M184.36,320H314a22.22,22.22,0,0,1,22.22,22.22v11.16H162.13V342.18A22.22,22.22,0,0,1,184.36,320Z"/><path fill="#ddccbf" d="M236.62,179.69l-7,24.58A111.18,111.18,0,0,1,196,258.07l-32.93,29v-.14l-.94,33H336.24l11.67-26.75A185.24,185.24,0,0,0,327.32,75.64a108.58,108.58,0,0,0-25-20.71l-54-32.69V56.8L143.05,150l16.53,25.55L193,160.11v0h0c30.12,26.44,69.9,26.44,100,0h0Z"/><path fill="#c9ad90" d="M183.44,164.52q-2.76-2.06-5.41-4.38h0v0l-21.88,10.07,3.44,5.33Z"/><path fill="#725537" d="M363.57 259.67a7.21 7.21 0 0 0-2.59-.47H331.64a7.5 7.5 0 0 0 0 15h26.14zM371.81 226.77a7 7 0 0 0-3.48-.87H320.64a7.5 7.5 0 0 0-7.5 7.5 7.51 7.51 0 0 0 7.5 7.5h47.69a7.92 7.92 0 0 0 .85-.05l2.72-14zM373.85 192.66a7.67 7.67 0 0 0-1.45-.14h-63a7.5 7.5 0 0 0 0 15h63a6.55 6.55 0 0 0 1.34-.13z"/><circle cx="256" cy="108.55" r="16.08" fill="#725537"/><path fill="#654b30" d="M256,92.47a15.93,15.93,0,0,0-7.5,1.86,16.07,16.07,0,0,1,0,28.44,16.08,16.08,0,1,0,7.5-30.3Z"/><path fill="#070606" d="M478.5,437H471V224.5A22.52,22.52,0,0,0,448.5,202H381.43a195.45,195.45,0,0,0-.89-22.12A191.45,191.45,0,0,0,332.93,70.66a115.79,115.79,0,0,0-26.77-22.14l-54-32.7a7.49,7.49,0,0,0-11.38,6.42V53.42L138.08,144.35a7.5,7.5,0,0,0-1.33,9.69l16.53,25.54a7.51,7.51,0,0,0,9.44,2.74l29.11-13.41a85,85,0,0,0,35.28,16.85L222.52,202H63.5A22.52,22.52,0,0,0,41,224.5V437H33.5a7.5,7.5,0,0,0-7.5,7.5v35A32.54,32.54,0,0,0,58.5,512h395A32.54,32.54,0,0,0,486,479.5v-35A7.5,7.5,0,0,0,478.5,437ZM380.6,217h67.9a7.5,7.5,0,0,1,7.5,7.5V437H443.5V236.66a7.5,7.5,0,0,0-7.5-7.5H379.05Q380,223.12,380.6,217Zm-12.67,52.51a191.54,191.54,0,0,0,8.1-25.35H428.5V437H83.5V244.16H199.42a104,104,0,0,1-8.38,8.28l-31.93,28.12a7.47,7.47,0,0,0-3.54,6.16l-.93,33a7.48,7.48,0,0,0,2.11,5.44,7.66,7.66,0,0,0,2.21,1.56,29.64,29.64,0,0,0-4.33,15.44v3.62h-4a7.49,7.49,0,0,0-7,4.85L131,384a7.51,7.51,0,0,0,7,10.15H360.32a7.51,7.51,0,0,0,7-10.15l-12.58-33.38a7.5,7.5,0,0,0-7-4.85h-4v-3.62a29.51,29.51,0,0,0-4.33-15.43,7.51,7.51,0,0,0,3.71-3.8l11.48-26.32a194.49,194.49,0,0,0,13.26-26.95C367.88,269.63,367.9,269.57,367.93,269.51ZM304.78,452v12.21A2.77,2.77,0,0,1,302,467H195a2.77,2.77,0,0,1-2.78-2.78V452Zm24-106.2H169.63v-3.62a14.74,14.74,0,0,1,14.73-14.72H314a14.73,14.73,0,0,1,14.72,14.72Zm7.5,15c.27,0,.53,0,.78,0h5.53l6.93,18.38H148.9l6.92-18.38h5.53c.26,0,.52,0,.78,0ZM235.08,212.16a5.89,5.89,0,0,0,.21-.59c.56-1.74,1.11-3.49,1.59-5.25l5.35-18.91H243c19.26,0,38.52-7.21,55-21.64a7.5,7.5,0,1,0-9.9-11.27C273,167.8,255.35,173.74,238,172.32a7.27,7.27,0,0,0-1.39-.13h0c-13.38-1.41-26.56-7.2-38.29-17.38a7.67,7.67,0,0,0-2.59-1.7,7.52,7.52,0,0,0-5.85.18L162.35,166l-9.5-14.68L253.21,62.41a7.49,7.49,0,0,0,2.53-5.61V35.54l42.65,25.81a100.94,100.94,0,0,1,23.32,19.27,177.12,177.12,0,0,1,44.79,111.9H309.41a7.5,7.5,0,0,0,0,15h56.94v.23a7.76,7.76,0,0,0-.21,1.75,6.15,6.15,0,0,0,.06.87q-.54,7.77-1.75,15.49H320.53a7.5,7.5,0,0,0,0,15h40.88a177.51,177.51,0,0,1-5.61,18.34H331.64a7.5,7.5,0,0,0,0,15h17.89q-3.64,7.71-8.07,15.17a8.29,8.29,0,0,0-.43.84l-9.7,22.25H169.85l.62-21.92L201,263.7A118.2,118.2,0,0,0,235.08,212.16ZM56,224.5a7.5,7.5,0,0,1,7.5-7.5H217.14a103.79,103.79,0,0,1-6.44,12.16H76a7.5,7.5,0,0,0-7.5,7.5V437H56Zm415,255A17.52,17.52,0,0,1,453.5,497H58.5A17.52,17.52,0,0,1,41,479.5V452H177.22v12.21A17.79,17.79,0,0,0,195,482H302a17.79,17.79,0,0,0,17.78-17.78V452H471Zm-215-387a16.08,16.08,0,1,0,16.08,16.08A16.08,16.08,0,0,0,256,92.47ZM72.19,467a7.5,7.5,0,1,0,7.5,7.5A7.5,7.5,0,0,0,72.19,467Zm30,0a7.5,7.5,0,1,0,7.5,7.5A7.5,7.5,0,0,0,102.19,467Zm30,0a7.5,7.5,0,1,0,7.5,7.5A7.5,7.5,0,0,0,132.19,467Z"/></svg>