<svg xmlns="http://www.w3.org/2000/svg" data-name="Layer 1" viewBox="0 0 512 512"><path fill="#78777f" d="M256 369.46l-29.11 29.11h0l-68.35 68.35-15.39 15.4a15 15 0 0 1-21.21 0L29.68 390.08a15 15 0 0 1 0-21.21L142.54 256l63.92 63.92zM320.69 207.24L369.45 256 482.32 143.14a15 15 0 0 0 0-21.21L390.08 29.68a15 15 0 0 0-21.21 0L294.7 103.84 256 142.54l13.3 13.3 27.38 27.39 2.34 2.33zM191.3 207.24L142.54 256 29.68 143.14a15 15 0 0 1 0-21.21l92.25-92.25a15 15 0 0 1 21.21 0l74.16 74.16 38.7 38.7-13.3 13.3-28.91 28.91-.81.81zM256 369.46l29.11 29.11h0l68.34 68.34 15.41 15.4a15 15 0 0 0 21.21 0l92.24-92.24a15 15 0 0 0 0-21.21L369.45 256l-63.91 63.92z"/><path fill="#ddccbf" d="M297.45,40.43H269.94V12.5a5,5,0,0,0-5-5H247.06a5,5,0,0,0-5,5V40.43H214.55a5,5,0,0,0-5,5V62.68a5,5,0,0,0,5,5h27.51v36.16h27.88V67.68h27.51a5,5,0,0,0,5-5V45.43A5,5,0,0,0,297.45,40.43Z"/><path fill="#9f7855" d="M300.46,103.84H211.08a15,15,0,0,0-14.46,19L214,185.56h82l18.83-62.39A15,15,0,0,0,300.46,103.84Z"/><path fill="#654a36" d="M302.69,163.34H207.85l-4-14.52a7.38,7.38,0,0,1,2.62-.48h99.12a7.62,7.62,0,0,1,1.6.17Z"/><path fill="#5b422b" d="M305.56,148.34h-15a7.62,7.62,0,0,1,1.6.17l-4.47,14.83h15l4.47-14.83A7.62,7.62,0,0,0,305.56,148.34Z"/><path fill="#725537" d="M165.2,474.44H346.8a15.7,15.7,0,0,1,15.7,15.7V504.5a0,0,0,0,1,0,0h-213a0,0,0,0,1,0,0V490.14A15.7,15.7,0,0,1,165.2,474.44Z"/><path fill="#9f7855" d="M322.3,398.58H189.7a15,15,0,0,0-13.95,9.49L157.61,454a15,15,0,0,0,13.95,20.51H340.45A15,15,0,0,0,354.4,454l-18.15-45.92A15,15,0,0,0,322.3,398.58Z"/><rect width="130" height="30" x="191" y="185.56" fill="#654a36" rx="10.9"/><polygon fill="#ddccbf" points="311.99 398.57 200.01 398.57 215.01 215.52 296.99 215.52 311.99 398.57"/><path fill="#070606" d="M380.06,256,498.23,137.83a7.49,7.49,0,0,0,0-10.6L384.78,13.77a7.5,7.5,0,0,0-10.61,0L291.6,96.34H277.44V75.18h25a7.5,7.5,0,0,0,7.5-7.5V40.43a7.49,7.49,0,0,0-7.5-7.5h-25V7.5a7.5,7.5,0,0,0-7.5-7.5H242.07a7.5,7.5,0,0,0-7.5,7.5V32.93h-25a7.5,7.5,0,0,0-7.5,7.5V67.68a7.5,7.5,0,0,0,7.5,7.5h25V96.34H220.41L137.84,13.77a7.5,7.5,0,0,0-10.61,0L13.77,127.23a7.49,7.49,0,0,0,0,10.6L131.94,256,13.77,374.17a7.5,7.5,0,0,0,0,10.61L127.23,498.24a7.52,7.52,0,0,0,10.61,0l4.16-4.17V504.5a7.5,7.5,0,0,0,7.5,7.5h213a7.5,7.5,0,0,0,7.5-7.5V494.06l4.17,4.18a7.51,7.51,0,0,0,10.61,0L498.23,384.77a7.49,7.49,0,0,0,0-10.6ZM313,155.08,327.83,106a7.5,7.5,0,0,0-7.18-9.67h-7.84l66.66-66.66L482.32,132.53,369.46,245.39l-41-40.95v-8a18.42,18.42,0,0,0-18.39-18.4h-4l5.27-17.46m-1.25,32.46a3.4,3.4,0,0,1,3.39,3.4v8.21a3.39,3.39,0,0,1-3.39,3.39H297.79a7.14,7.14,0,0,0-.8,0H215a6.85,6.85,0,0,0-.79,0H201.9a3.4,3.4,0,0,1-3.4-3.39v-8.21a3.4,3.4,0,0,1,3.4-3.4Zm-94.48-29.72h79.23l-4.44,14.72h-70.7Zm88.22,227.73h-95.7l5.76-70.32c0-.1,0-.21,0-.31l8-97.38h68.16Zm-102-168h5l-6.56,80.1L153.15,256l37.11-37.1A18.28,18.28,0,0,0,201.9,223.06Zm24.91,183H322.3a7.44,7.44,0,0,1,7,4.74l18.15,45.92a7.49,7.49,0,0,1-6,10.2H170.62a7.51,7.51,0,0,1-6-10.2l18.15-45.92a7.45,7.45,0,0,1,7-4.74Zm78.32-183h5a18.28,18.28,0,0,0,11.63-4.16L358.85,256,311.7,303.16ZM217.05,60.18V47.93h25a7.5,7.5,0,0,0,7.5-7.5V15h12.87V40.43a7.5,7.5,0,0,0,7.5,7.5h25V60.18h-25a7.5,7.5,0,0,0-7.5,7.5V96.34H249.57V67.68a7.5,7.5,0,0,0-7.5-7.5Zm93.5,51.16-11.16,37H211.47l-10.26-37ZM29.68,132.53,132.54,29.68,199.2,96.34h-7.85a7.5,7.5,0,0,0-7.23,9.5l20,72.22H201.9a18.42,18.42,0,0,0-18.4,18.4v8l-41,40.95ZM149.77,465.09l-17.23,17.24L29.68,379.47,142.54,266.61l56.16,56.15-5.6,68.32h-3.4a22.36,22.36,0,0,0-20.92,14.23l-18.15,45.92A22.51,22.51,0,0,0,149.77,465.09ZM355,497H157v-6.86a8.21,8.21,0,0,1,8.2-8.2H170c.51,0,1,.06,1.54.06H340.45c.51,0,1,0,1.54-.06h4.81a8.21,8.21,0,0,1,8.2,8.2Zm24.48-14.67-17.25-17.25a22.4,22.4,0,0,0-.86-13.85l-18.14-45.92a22.38,22.38,0,0,0-20.93-14.23h-3.4l-5.6-68.31,56.16-56.16L482.32,379.47Z"/></svg>