<svg xmlns="http://www.w3.org/2000/svg" data-name="Layer 1" viewBox="0 0 512 512"><rect width="467" height="300" x="22.5" y="174.5" fill="#a6acd2" rx="20"/><rect width="397" height="175" x="57.5" y="209.43" fill="#e3e4ec"/><rect width="75" height="30" x="218.5" y="413.27" fill="#4452a3" rx="15"/><rect width="75" height="30" x="83.5" y="413.27" fill="#4452a3" rx="15"/><rect width="75" height="30" x="353.5" y="413.27" fill="#4452a3" rx="15"/><path fill="#171719" d="M158.5 292.56a7.5 7.5 0 0 1-7.5-7.5V254.42H136v30.64a7.5 7.5 0 0 1-15 0V246.92a7.5 7.5 0 0 1 7.5-7.5h30a7.5 7.5 0 0 1 7.5 7.5v38.14A7.5 7.5 0 0 1 158.5 292.56zM158.5 354.42h-30a7.5 7.5 0 0 1-7.5-7.5V308.78a7.5 7.5 0 0 1 15 0v30.64h15V308.78a7.5 7.5 0 0 1 15 0v38.14A7.5 7.5 0 0 1 158.5 354.42zM218.5 292.56a7.5 7.5 0 0 1-7.5-7.5V254.42H196v30.64a7.5 7.5 0 0 1-15 0V246.92a7.5 7.5 0 0 1 7.5-7.5h30a7.5 7.5 0 0 1 7.5 7.5v38.14A7.5 7.5 0 0 1 218.5 292.56zM218.5 354.42h-30a7.5 7.5 0 0 1-7.5-7.5V308.78a7.5 7.5 0 0 1 15 0v30.64h15V308.78a7.5 7.5 0 0 1 15 0v38.14A7.5 7.5 0 0 1 218.5 354.42zM323.5 292.56a7.5 7.5 0 0 1-7.5-7.5V254.42H301v30.64a7.5 7.5 0 0 1-15 0V246.92a7.5 7.5 0 0 1 7.5-7.5h30a7.5 7.5 0 0 1 7.5 7.5v38.14A7.5 7.5 0 0 1 323.5 292.56zM323.5 354.42h-30a7.5 7.5 0 0 1-7.5-7.5V308.78a7.5 7.5 0 0 1 15 0v30.64h15V308.78a7.5 7.5 0 0 1 15 0v38.14A7.5 7.5 0 0 1 323.5 354.42zM383.5 292.56a7.5 7.5 0 0 1-7.5-7.5V254.42H361v30.64a7.5 7.5 0 0 1-15 0V246.92a7.5 7.5 0 0 1 7.5-7.5h30a7.5 7.5 0 0 1 7.5 7.5v38.14A7.5 7.5 0 0 1 383.5 292.56zM383.5 354.42h-30a7.5 7.5 0 0 1-7.5-7.5V308.78a7.5 7.5 0 0 1 15 0v30.64h15V308.78a7.5 7.5 0 0 1 15 0v38.14A7.5 7.5 0 0 1 383.5 354.42z"/><path fill="#070606" stroke="#070606" stroke-miterlimit="10" d="M255.59 315.3a6.91 6.91 0 1 0 7 6.91A7 7 0 0 0 255.59 315.3zM255.59 265.11a6.91 6.91 0 1 0 7 6.9A7 7 0 0 0 255.59 265.11z"/><path fill="#4452a3" d="M108.5 144.46h85a15 15 0 0 1 15 15v15a0 0 0 0 1 0 0H93.5a0 0 0 0 1 0 0v-15A15 15 0 0 1 108.5 144.46zM303.5 174.46h115v-30a15 15 0 0 0-15-15h-85a15 15 0 0 0-15 15z"/><path fill="#070606" d="M353.5,292.56a7.5,7.5,0,0,0,7.5-7.5V254.42h15v30.64a7.5,7.5,0,0,0,15,0V246.92a7.5,7.5,0,0,0-7.5-7.5h-30a7.5,7.5,0,0,0-7.5,7.5v38.14A7.5,7.5,0,0,0,353.5,292.56Zm60,113.21h-45a22.5,22.5,0,0,0,0,45h45a22.5,22.5,0,0,0,0-45Zm0,30h-45a7.5,7.5,0,0,1,0-15h45a7.5,7.5,0,0,1,0,15Zm-135-30h-45a22.5,22.5,0,0,0,0,45h45a22.5,22.5,0,0,0,0-45Zm0,30h-45a7.5,7.5,0,0,1,0-15h45a7.5,7.5,0,0,1,0,15Zm-135-30h-45a22.5,22.5,0,0,0,0,45h45a22.5,22.5,0,0,0,0-45Zm0,30h-45a7.5,7.5,0,0,1,0-15h45a7.5,7.5,0,0,1,0,15Zm210-81.35h30a7.5,7.5,0,0,0,7.5-7.5V308.78a7.5,7.5,0,0,0-15,0v30.64H361V308.78a7.5,7.5,0,0,0-15,0v38.14A7.5,7.5,0,0,0,353.5,354.42Zm-225,0h30a7.5,7.5,0,0,0,7.5-7.5V308.78a7.5,7.5,0,0,0-15,0v30.64H136V308.78a7.5,7.5,0,0,0-15,0v38.14A7.5,7.5,0,0,0,128.5,354.42Zm0-61.86a7.5,7.5,0,0,0,7.5-7.5V254.42h15v30.64a7.5,7.5,0,0,0,15,0V246.92a7.5,7.5,0,0,0-7.5-7.5h-30a7.5,7.5,0,0,0-7.5,7.5v38.14A7.5,7.5,0,0,0,128.5,292.56Zm326-90.63H57.5a7.5,7.5,0,0,0-7.5,7.5v175a7.5,7.5,0,0,0,7.5,7.5h397a7.5,7.5,0,0,0,7.5-7.5v-175A7.5,7.5,0,0,0,454.5,201.93Zm-7.5,175H65v-160H447ZM188.5,354.42h30a7.5,7.5,0,0,0,7.5-7.5V308.78a7.5,7.5,0,0,0-15,0v30.64H196V308.78a7.5,7.5,0,0,0-15,0v38.14A7.5,7.5,0,0,0,188.5,354.42ZM469.5,167H426V144.46A22.53,22.53,0,0,0,403.5,122h-85a22.53,22.53,0,0,0-22.5,22.5V167H216v-7.54A22.53,22.53,0,0,0,193.5,137h-85A22.53,22.53,0,0,0,86,159.46V167H42.5A27.54,27.54,0,0,0,15,194.5v260A27.54,27.54,0,0,0,42.5,482h427A27.54,27.54,0,0,0,497,454.5v-260A27.54,27.54,0,0,0,469.5,167ZM311,144.46a7.51,7.51,0,0,1,7.5-7.5h85a7.51,7.51,0,0,1,7.5,7.5V167H311Zm-210,15a7.51,7.51,0,0,1,7.5-7.5h85a7.51,7.51,0,0,1,7.5,7.5V167H101Zm381,295A12.52,12.52,0,0,1,469.5,467H42.5A12.52,12.52,0,0,1,30,454.5v-260A12.52,12.52,0,0,1,42.5,182h427A12.52,12.52,0,0,1,482,194.5ZM188.5,292.56a7.5,7.5,0,0,0,7.5-7.5V254.42h15v30.64a7.5,7.5,0,0,0,15,0V246.92a7.5,7.5,0,0,0-7.5-7.5h-30a7.5,7.5,0,0,0-7.5,7.5v38.14A7.5,7.5,0,0,0,188.5,292.56Zm105,61.86h30a7.5,7.5,0,0,0,7.5-7.5V308.78a7.5,7.5,0,0,0-15,0v30.64H301V308.78a7.5,7.5,0,0,0-15,0v38.14A7.5,7.5,0,0,0,293.5,354.42Zm0-61.86a7.5,7.5,0,0,0,7.5-7.5V254.42h15v30.64a7.5,7.5,0,0,0,15,0V246.92a7.5,7.5,0,0,0-7.5-7.5h-30a7.5,7.5,0,0,0-7.5,7.5v38.14A7.5,7.5,0,0,0,293.5,292.56Zm-37.91-13.14a7.41,7.41,0,1,0-7.5-7.41A7.46,7.46,0,0,0,255.59,279.42Zm0,50.19a7.41,7.41,0,1,0-7.5-7.4A7.46,7.46,0,0,0,255.59,329.61Z"/></svg>