<svg xmlns="http://www.w3.org/2000/svg" data-name="Layer 1" viewBox="0 0 512 512"><path fill="#3c3b41" d="M421.61,182.21H276.69c-3.2,0-5.79,3-5.79,6.66v16.68c0,3.68,2.59,6.66,5.79,6.66H421.61c3.2,0,5.79-3,5.79-6.66V188.87C427.4,185.19,424.81,182.21,421.61,182.21Z"/><path fill="#c8c6cb" d="M331.12,66.34l-1.21,8.91a347.55,347.55,0,0,1-25.81,92.16l-6.48,14.88H400.68l-6.48-14.88a347.55,347.55,0,0,1-25.81-92.16l-1.21-8.91"/><circle cx="349.15" cy="42.48" r="28.98" fill="#8b8992"/><path fill="#654a36" d="M421.61,466.48H276.69c-3.2,0-5.79,3-5.79,6.66v16.68c0,3.68,2.59,6.66,5.79,6.66H421.61c3.2,0,5.79-3,5.79-6.66V473.14C427.4,469.46,424.81,466.48,421.61,466.48Z"/><path fill="#ddccbf" d="M331.12,350.44l-1.21,8.91a347.55,347.55,0,0,1-25.81,92.16l-6.48,14.88H400.68l-6.48-14.88a347.55,347.55,0,0,1-25.81-92.16l-1.21-8.91"/><circle cx="349.15" cy="326.58" r="28.98" fill="#9f7855"/><path fill="#654a36" d="M181.82,466.48H36.9c-3.2,0-5.79,3-5.79,6.66v16.68c0,3.68,2.59,6.66,5.79,6.66H181.82c3.2,0,5.79-3,5.79-6.66V473.14C187.61,469.46,185,466.48,181.82,466.48Z"/><path fill="#ddccbf" d="M91.33,350.44l-1.21,8.91a347.55,347.55,0,0,1-25.81,92.16l-6.48,14.88H160.89l-6.48-14.88a347.55,347.55,0,0,1-25.81-92.16l-1.21-8.91"/><path fill="#171719" d="M242.91 141.91L222.85 119.6a7.5 7.5 0 1 0-11.15 10l8.06 9c-25.61 1.05-50.53 11.64-71.67 30.78-25.87 23.41-43 56.87-48.25 94.22a7.5 7.5 0 1 0 14.86 2.09c4.76-33.88 20.19-64.13 43.45-85.19 18-16.27 38.95-25.48 60.44-26.81L210 161.4a7.5 7.5 0 1 0 10 11.16l22.23-20a7.29 7.29 0 0 0 1.1-1.19A7.52 7.52 0 0 0 242.91 141.91zM486.37 397.79c.07-.08.12-.17.18-.25s.18-.22.26-.34l.19-.32a3.14 3.14 0 0 0 .18-.31l.17-.34.15-.33a3.4 3.4 0 0 0 .12-.34 3.62 3.62 0 0 0 .13-.35l.09-.35c0-.12.06-.24.08-.36s.05-.28.07-.42 0-.2 0-.3a7.42 7.42 0 0 0 0-1.49c0-.1 0-.2 0-.3s0-.28-.07-.42-.05-.24-.08-.36l-.09-.36-.12-.34c-.05-.11-.08-.23-.13-.35l-.15-.31a3.78 3.78 0 0 0-.17-.35 2.75 2.75 0 0 0-.17-.29l-.2-.34c-.07-.11-.15-.2-.22-.3s-.14-.2-.22-.29a6 6 0 0 0-.42-.46l-.08-.09-21.21-21.21a7.5 7.5 0 0 0-10.61 10.61l8.41 8.4H425.57a7.5 7.5 0 1 0 0 15h36.89L454.05 409a7.5 7.5 0 1 0 10.61 10.6l21.21-21.21A6.52 6.52 0 0 0 486.37 397.79z"/><circle cx="109.36" cy="326.58" r="28.98" fill="#9f7855"/><path fill="#070606" d="M181.87,459.93h-16l-4.52-10.37a340.29,340.29,0,0,1-25.26-90.17l-.73-5.38a36.49,36.49,0,1,0-51.87,0l-.73,5.38A340.65,340.65,0,0,1,57.5,449.56L53,459.93H37c-7.33,0-13.3,6.35-13.3,14.16v16.68c0,7.81,6,14.16,13.3,14.16H181.87c7.34,0,13.3-6.35,13.3-14.16V474.09C195.17,466.28,189.21,459.93,181.87,459.93Zm-72.45-153a21.49,21.49,0,1,1-21.49,21.48A21.51,21.51,0,0,1,109.42,306.9ZM71.25,455.56a355.68,355.68,0,0,0,26.16-92.73,36.37,36.37,0,0,0,24,0,355,355,0,0,0,26.16,92.73l1.9,4.37H69.34Zm108.92,34.37H38.66v-15H180.17Zm43-370.22a7.5,7.5,0,1,0-11.15,10l8.06,9c-25.61,1-50.53,11.64-71.68,30.78-25.86,23.4-43,56.87-48.24,94.22a7.51,7.51,0,0,0,6.38,8.47,7.65,7.65,0,0,0,1.06.07A7.49,7.49,0,0,0,115,265.8c4.77-33.88,20.2-64.14,43.46-85.19,18-16.27,39-25.48,60.44-26.82l-8.58,7.72a7.5,7.5,0,1,0,10,11.15l22.23-20a7.36,7.36,0,0,0,1.1-1.2,7.5,7.5,0,0,0-.45-9.47ZM488.3,392.4c0-.1,0-.2,0-.3s0-.29-.07-.43-.05-.23-.08-.35-.06-.24-.1-.36a3.4,3.4,0,0,0-.12-.34l-.12-.35-.15-.32c-.06-.11-.11-.23-.17-.35s-.11-.19-.17-.29-.13-.23-.21-.34l-.22-.3-.21-.29c-.13-.16-.28-.31-.42-.46l-.08-.08-21.21-21.22a7.5,7.5,0,0,0-10.61,10.61l8.41,8.41H425.84a7.5,7.5,0,0,0,0,15h36.89l-8.41,8.41a7.5,7.5,0,0,0,10.61,10.61l21.21-21.21c.17-.18.34-.36.5-.56l.18-.24c.09-.11.18-.23.26-.35s.12-.21.19-.31.13-.21.18-.32.11-.22.16-.33.11-.22.16-.33l.12-.34c0-.12.09-.23.12-.35a2.58,2.58,0,0,0,.09-.35c0-.12.07-.24.09-.36s.05-.28.07-.42,0-.2,0-.31A7.32,7.32,0,0,0,488.3,392.4ZM277,220.83H421.87c7.34,0,13.3-6.35,13.3-14.16V190c0-7.81-6-14.16-13.3-14.16h-16l-4.5-10.34a340.29,340.29,0,0,1-25.26-90.17l-.82-6a36.49,36.49,0,1,0-51.69,0l-.82,6a340.65,340.65,0,0,1-25.25,90.17L293,175.83H277c-7.33,0-13.3,6.35-13.3,14.16v16.68C263.66,214.48,269.63,220.83,277,220.83ZM349.42,22.07a21.49,21.49,0,1,1-21.49,21.48A21.51,21.51,0,0,1,349.42,22.07ZM311.25,171.49A355.41,355.41,0,0,0,337.51,78a36.26,36.26,0,0,0,23.81,0,355.43,355.43,0,0,0,26.27,93.46l1.89,4.34H309.35Zm-32.59,19.34h18.59c.21,0,.42,0,.63,0H401c.21,0,.42,0,.64,0h18.58v15H278.66Zm143.21,269.1h-16l-4.52-10.38a340.29,340.29,0,0,1-25.26-90.17l-.7-5.16a36.49,36.49,0,1,0-51.93,0l-.7,5.15a340.61,340.61,0,0,1-25.25,90.18L293,459.93H277c-7.33,0-13.3,6.35-13.3,14.16v16.68c0,7.81,6,14.16,13.3,14.16H421.87c7.34,0,13.3-6.35,13.3-14.16V474.09C435.17,466.28,429.21,459.93,421.87,459.93ZM349.42,307.14a21.49,21.49,0,1,1-21.49,21.48A21.51,21.51,0,0,1,349.42,307.14Zm-38.17,148.4a355.06,355.06,0,0,0,26.12-92.49,36.24,36.24,0,0,0,24.09,0,355.47,355.47,0,0,0,26.13,92.49l1.91,4.39H309.33Zm108.92,34.39H278.66v-15H420.17Z"/></svg>