<svg xmlns="http://www.w3.org/2000/svg" data-name="Layer 1" viewBox="0 0 512 512"><path fill="#c9ad90" d="M132.14,318.63s0,0,0,0a26.37,26.37,0,0,1-22.89-2.32h0l-1.5-123.13,54-99.64a19.73,19.73,0,0,1,14.08-10.07L327,58.05l29.38-7,37.12-6V158l-18.62,3c-10.54,4.77-15.61,10.08-24,16.74a17.67,17.67,0,0,0-3.09,3.2L258.8,297.86l-40.28,46.39c-5.46,6.28-16.88,4-24.32.29h0c-5.16-2.59-7.34-6.63-7.38-11.27h0l2.26-9.23c.45-1,1-1.94,1.52-2.91l42.76-73.31L243,220.17A34.29,34.29,0,0,0,244.73,206l-.78-8.91A34.07,34.07,0,0,0,235.12,177l-3-3.31c-5-5.5-15.72-11.26-23.06-12.59a34.14,34.14,0,0,0-34.23,14.24L157.87,200a24.78,24.78,0,0,0-4.22,11.52L145,297.91Z"/><path fill="#3c3b41" d="M232.08,456.71H89c-3.16,0-5.73,3-5.73,6.65v16.69c0,3.68,2.57,6.66,5.73,6.66H232.08c3.16,0,5.72-3,5.72-6.66V463.36C237.8,459.69,235.24,456.71,232.08,456.71Z"/><path fill="#c8c6cb" d="M142.49,344.11l-.93,6.86a343.41,343.41,0,0,1-25.48,91l-6.4,14.69H211.42L205,442a343,343,0,0,1-25.48-91l-.94-6.85H142.49Z"/><circle cx="160.55" cy="321.92" r="28.61" fill="#8b8992"/><rect width="62.65" height="151.1" x="393.48" y="26.48" fill="#c8c6cb" rx="5"/><path fill="#070606" d="M478.85,478.62H245.3V462.76c0-7.8-5.93-14.16-13.22-14.16H216.37l-4.47-10.25a335.3,335.3,0,0,1-24.92-89l-.18-1.25a24.2,24.2,0,0,0,4,2.54c.09,0,.17.09.26.12A40,40,0,0,0,208.3,355c6.13,0,11.88-1.87,15.89-6.48l40.28-46.39c.1-.12.21-.24.3-.37l89-116.89A10.47,10.47,0,0,1,355.5,183c1.9-1.5,3.59-2.9,5.23-4.26,5.3-4.4,9.54-7.91,16.34-11.11L386,166.2V177a7.5,7.5,0,0,0,7.5,7.5h62.64a7.5,7.5,0,0,0,7.5-7.5V25.88a7.5,7.5,0,0,0-7.5-7.5H393.48a7.5,7.5,0,0,0-7.5,7.5V38.05l-30.82,5-.54.11-29.14,6.94L174.55,75.48a27,27,0,0,0-19.43,13.9l-54,99.64a7.41,7.41,0,0,0-.9,3.66l1.49,123.05a7.52,7.52,0,0,0,3.58,6.39,33.69,33.69,0,0,0,19.59,5,36.14,36.14,0,0,0,9.63,19.23l-.41,3a335.8,335.8,0,0,1-24.92,89l-4.47,10.25H89c-7.29,0-13.22,6.36-13.22,14.16v15.86H33.15a7.5,7.5,0,1,0,0,15h445.7a7.5,7.5,0,0,0,0-15ZM401,33.38h47.64v136.1H401ZM160.55,285.21a36,36,0,0,0-6.85.66l7.42-74.2a17.27,17.27,0,0,1,2.94-8L181,179a26.64,26.64,0,0,1,26.71-11.1c5.82,1.05,15,6.05,18.85,10.26l3,3.33a26.7,26.7,0,0,1,6.88,15.66l.78,8.9a26.46,26.46,0,0,1-1.38,11.06l-9.37,27-34.62,59.35A36.13,36.13,0,0,0,160.55,285.21Zm21.11,36.11a21.11,21.11,0,1,1-42.22,0c0-.73,0-1.45.11-2.15v-.06a21.11,21.11,0,0,1,42.1,2.21Zm-56-9.36a18.82,18.82,0,0,1-9-.92l-1.42-116.59,53-97.94A12.2,12.2,0,0,1,177,90.27L328.22,64.84a3.86,3.86,0,0,0,.49-.1l29.12-6.93L386,53.25V151l-12.33,2a7.34,7.34,0,0,0-1.89.56c-9.16,4.15-14.72,8.76-20.6,13.64-1.58,1.31-3.21,2.66-5,4a25,25,0,0,0-4.42,4.56L253,292.52l-40.12,46.21c-2,2.28-9.13,1.58-15.3-1.5l-.18-.08c-1.93-1-2.69-2.11-2.95-3.34a35.37,35.37,0,0,0,2-8.31q.32-.6.66-1.2L239.83,251a7.18,7.18,0,0,0,.61-1.32L250.05,222a41.75,41.75,0,0,0,2.16-17.29l-.78-8.9a41.81,41.81,0,0,0-10.77-24.49l-3-3.32c-6-6.59-18.26-13.27-27.25-14.9a41.65,41.65,0,0,0-41.75,17.37l-16.94,24.64a32.39,32.39,0,0,0-5.5,15l-8.3,83.07A36.22,36.22,0,0,0,125.68,312ZM123,444.34a350.9,350.9,0,0,0,25.47-89,35.89,35.89,0,0,0,24.25,0,350.49,350.49,0,0,0,25.47,89l1.83,4.2H121.13ZM230.3,478.6H90.81v-15H230.3Z"/></svg>