<svg xmlns="http://www.w3.org/2000/svg" data-name="Layer 1" viewBox="0 0 512 512"><circle cx="409.5" cy="131.25" r="45" fill="#9f7855"/><rect width="105" height="30" x="357" y="170.72" fill="#654a36" rx="9.79"/><path fill="#654a36" d="M329.31,395.75H489.69a14.81,14.81,0,0,1,14.81,14.81v15.19a0,0,0,0,1,0,0h-190a0,0,0,0,1,0,0V410.56A14.81,14.81,0,0,1,329.31,395.75Z"/><path fill="#9f7855" d="M459,338.59H360a11.2,11.2,0,0,0-10.42,7.14L336,380.31a11.28,11.28,0,0,0,10.42,15.44H472.57A11.28,11.28,0,0,0,483,380.31l-13.55-34.58A11.2,11.2,0,0,0,459,338.59Z"/><polygon fill="#ddccbf" points="451.32 338.59 367.68 338.59 378.88 200.77 440.12 200.77 451.32 338.59"/><circle cx="102.5" cy="131.25" r="45" fill="#9f7855"/><rect width="105" height="30" x="50" y="170.72" fill="#654a36" rx="9.79"/><path fill="#654a36" d="M22.31,395.75H182.69a14.81,14.81,0,0,1,14.81,14.81v15.19a0,0,0,0,1,0,0H7.5a0,0,0,0,1,0,0V410.56A14.81,14.81,0,0,1,22.31,395.75Z"/><path fill="#5b422b" d="M182.69,395.75h-15a14.81,14.81,0,0,1,14.81,14.81v15.19h15V410.56A14.81,14.81,0,0,0,182.69,395.75Z"/><path fill="#9f7855" d="M152,338.59H53a11.2,11.2,0,0,0-10.42,7.14L29,380.31a11.28,11.28,0,0,0,10.42,15.44H165.57A11.28,11.28,0,0,0,176,380.31l-13.55-34.58A11.2,11.2,0,0,0,152,338.59Z"/><polygon fill="#ddccbf" points="144.32 338.59 60.68 338.59 71.88 200.77 133.12 200.77 144.32 338.59"/><path fill="#ddccbf" d="M297.45,40.43H269.94V12.5a5,5,0,0,0-5-5H247.06a5,5,0,0,0-5,5V40.43H214.55a5,5,0,0,0-5,5V62.68a5,5,0,0,0,5,5h27.51v36.16h27.88V67.68h27.51a5,5,0,0,0,5-5V45.43A5,5,0,0,0,297.45,40.43Z"/><path fill="#9f7855" d="M300.46,103.84H211.07a15,15,0,0,0-14.45,19L214,185.56h82l18.83-62.39A15,15,0,0,0,300.46,103.84Z"/><path fill="#654a36" d="M307.17,148.52a7.16,7.16,0,0,0-1.61-.18H206.44a7.38,7.38,0,0,0-2.62.48l4,14.52H302.7Z"/><path fill="#5b422b" d="M305.56,148.34h-15a7.16,7.16,0,0,1,1.61.18l-4.47,14.82h15l4.47-14.82A7.16,7.16,0,0,0,305.56,148.34Z"/><path fill="#654a36" d="M165.2,474.44H346.8a15.7,15.7,0,0,1,15.7,15.7V504.5a0,0,0,0,1,0,0h-213a0,0,0,0,1,0,0V490.14A15.7,15.7,0,0,1,165.2,474.44Z"/><path fill="#9f7855" d="M322.3,398.58H189.7a15,15,0,0,0-13.95,9.49L157.61,454a15,15,0,0,0,13.95,20.51H340.44A15,15,0,0,0,354.39,454l-18.14-45.92A15,15,0,0,0,322.3,398.58Z"/><rect width="130" height="30" x="191" y="185.56" fill="#654a36" rx="10.9"/><polygon fill="#ddccbf" points="311.99 398.57 200.01 398.57 215.01 215.52 296.99 215.52 311.99 398.57"/><path fill="#070606" d="M490.88,388.28a18.83,18.83,0,0,0-.91-10.71L476.42,343A18.6,18.6,0,0,0,459,331.09h-.79l-10-122.87h4a17.32,17.32,0,0,0,17.29-17.3V180.51a17.31,17.31,0,0,0-17.29-17.29h-1.07a52.5,52.5,0,1,0-83.28,0h-1.07a17.3,17.3,0,0,0-17.29,17.29v10.41a17.31,17.31,0,0,0,17.29,17.3h4l-10,122.87H360A18.61,18.61,0,0,0,342.57,343L329,377.57a18.81,18.81,0,0,0-.9,10.73,22,22,0,0,0-9.24,2.55L305.13,223.06h5a18.41,18.41,0,0,0,18.4-18.39v-8.21a18.42,18.42,0,0,0-18.4-18.4h-4l21.75-72a7.5,7.5,0,0,0-7.18-9.67H277.43V75.18h25a7.5,7.5,0,0,0,7.5-7.5V40.43a7.5,7.5,0,0,0-7.5-7.5h-25V7.5a7.5,7.5,0,0,0-7.5-7.5H242.06a7.5,7.5,0,0,0-7.5,7.5V32.93h-25a7.5,7.5,0,0,0-7.5,7.5V67.68a7.5,7.5,0,0,0,7.5,7.5h25V96.34H191.35a7.5,7.5,0,0,0-7.23,9.5l14.44,52.07c0,.06,0,.13.05.2l5.54,19.95h-2.26a18.42,18.42,0,0,0-18.39,18.4v8.21a18.41,18.41,0,0,0,18.39,18.39h5L193.12,390.85a22,22,0,0,0-9.24-2.55,18.9,18.9,0,0,0-.91-10.73L169.42,343A18.6,18.6,0,0,0,152,331.09h-.79l-10-122.87h4a17.32,17.32,0,0,0,17.29-17.3V180.51a17.31,17.31,0,0,0-17.29-17.29h-1.07a52.5,52.5,0,1,0-83.28,0H59.79A17.3,17.3,0,0,0,42.5,180.51v10.41a17.31,17.31,0,0,0,17.29,17.3h4l-10,122.87H53A18.61,18.61,0,0,0,35.57,343L22,377.57a18.74,18.74,0,0,0-.9,10.71A22.35,22.35,0,0,0,0,410.56v15.19a7.5,7.5,0,0,0,7.5,7.5H157.73l-7.1,18A22.48,22.48,0,0,0,152.18,471,23.18,23.18,0,0,0,142,490.14V504.5a7.5,7.5,0,0,0,7.5,7.5h213a7.5,7.5,0,0,0,7.5-7.5V490.14A23.19,23.19,0,0,0,359.81,471a22.48,22.48,0,0,0,1.56-19.72l-7.11-18H504.5a7.5,7.5,0,0,0,7.5-7.5V410.56A22.34,22.34,0,0,0,490.88,388.28ZM409.5,93.75a37.5,37.5,0,0,1,19.59,69.47H389.91A37.5,37.5,0,0,1,409.5,93.75Zm-42.71,99.47a2.3,2.3,0,0,1-2.29-2.3V180.51a2.29,2.29,0,0,1,2.29-2.29h85.42a2.29,2.29,0,0,1,2.29,2.29v10.41a2.3,2.3,0,0,1-2.29,2.3Zm76.39,137.87H375.81l10-122.82h47.4ZM343,383l13.55-34.57a3.69,3.69,0,0,1,3.44-2.38h99a3.69,3.69,0,0,1,3.44,2.38L476,383a3.86,3.86,0,0,1-.4,3.59,3.59,3.59,0,0,1-3,1.62H346.42a3.57,3.57,0,0,1-3-1.62A3.8,3.8,0,0,1,343,383ZM217,60.18V47.93h25a7.5,7.5,0,0,0,7.5-7.5V15h12.87V40.43a7.5,7.5,0,0,0,7.5,7.5h25V60.18h-25a7.5,7.5,0,0,0-7.5,7.5V96.34H249.56V67.68a7.5,7.5,0,0,0-7.5-7.5Zm-15.83,51.16H310.55l-11.16,37H211.47Zm93.65,52-4.44,14.72H219.71l-4.08-14.72Zm-93,44.72a3.39,3.39,0,0,1-3.39-3.39v-8.21a3.4,3.4,0,0,1,3.39-3.4H310.1a3.41,3.41,0,0,1,3.4,3.4v8.21a3.4,3.4,0,0,1-3.4,3.39H297.78c-.26,0-.53,0-.79,0H215c-.27,0-.53,0-.8,0Zm102,183h-95.7l13.77-168h68.16ZM175.68,428.65l7-17.83a7.46,7.46,0,0,1,7-4.74H322.3a7.46,7.46,0,0,1,7,4.74l18.15,45.92a7.51,7.51,0,0,1-6,10.2H170.61a7.49,7.49,0,0,1-6-10.2l11.09-28.06ZM102.5,93.75a37.5,37.5,0,0,1,19.59,69.47H82.91A37.5,37.5,0,0,1,102.5,93.75ZM59.79,193.22a2.3,2.3,0,0,1-2.29-2.3V180.51a2.29,2.29,0,0,1,2.29-2.29h85.42a2.29,2.29,0,0,1,2.29,2.29v10.41a2.3,2.3,0,0,1-2.29,2.3Zm76.39,137.87H68.81l10-122.82h47.4ZM36,383l13.55-34.57A3.69,3.69,0,0,1,53,346.09h99a3.69,3.69,0,0,1,3.44,2.38L169,383a3.86,3.86,0,0,1-.4,3.59,3.59,3.59,0,0,1-3,1.62H39.42a3.57,3.57,0,0,1-3-1.62A3.8,3.8,0,0,1,36,383ZM15,418.25v-7.69a7.32,7.32,0,0,1,7.31-7.31H169.72c-.34.67-.67,1.35-.95,2.06l-5.11,12.94Zm340,71.89V497H157v-6.86a8.2,8.2,0,0,1,8.19-8.2H170c.51,0,1,.06,1.54.06H340.44c.52,0,1,0,1.54-.06h4.82A8.21,8.21,0,0,1,355,490.14Zm142-71.89H348.34l-5.12-12.94a21.37,21.37,0,0,0-1-2.06H489.69a7.32,7.32,0,0,1,7.31,7.31Z"/></svg>