<svg xmlns="http://www.w3.org/2000/svg" data-name="Layer 1" viewBox="0 0 512 512"><path fill="#3c3b41" d="M349.17,474.31l-16.8,28.47v1.52H504.5V490c0-8.65-5.68-15.66-12.69-15.66H349.17Z"/><path fill="#8b8992" d="M349.17,474.26l-9.5-6.24a.09.09,0,0,1,0,0l10.45-39.88,3.47-9.07a12.15,12.15,0,0,1,11.28-7.88H472A12.14,12.14,0,0,1,483.29,419L498,457.24c3,7.87-2.25,16.35-10.24,17a8.77,8.77,0,0,1-1,.05H362.44Z"/><polygon fill="#c8c6cb" points="463.68 411.18 373.19 411.18 385.31 258.85 451.56 258.85 463.68 411.18"/><rect width="105.05" height="29.99" x="365.91" y="228.87" fill="#3c3b41" rx="9.79"/><path fill="#8b8992" d="M460.86,145.65v39.66h-25.4V145.65h-34v39.66H376V145.65H351.77v74.89a8.21,8.21,0,0,0,8.08,8.33H477a8.21,8.21,0,0,0,8.09-8.33V145.65Z"/><rect width="14.56" height="39.66" x="361.45" y="145.65" fill="#78777f"/><polygon fill="#2a2a2c" points="182.79 474.51 168.23 474.51 186.39 504.5 200.96 504.5 182.79 474.51"/><path fill="#3c3b41" d="M193.67,504.5H7.5V490.17c0-8.64,6.13-15.66,13.72-15.66H175.51Z"/><path fill="#8b8992" d="M175.51,474.46l-23.95.05H26.78c-.38,0-.75,0-1.12-.05-8.65-.73-14.35-9.92-11.08-18.41l15.86-41.33a13.11,13.11,0,0,1,12.19-8.54h115.9a13,13,0,0,1,10,4.82l14.12,60.47-.07,0Z"/><polygon fill="#c8c6cb" points="149.52 406.23 51.65 406.23 64.76 241.47 136.41 241.47 149.52 406.23"/><rect width="113.63" height="29.99" x="43.77" y="211.48" fill="#3c3b41" rx="10.18"/><path fill="#8b8992" d="M150.09,211.49H51.71l-1.77-1.9c-19.95-21.43-17.17-56,5.94-73.77L93.32,98.45a10.69,10.69,0,0,1,7.54-3.14h0a10.65,10.65,0,0,1,7.64,3.26l37.6,38.61c22.92,18.41,24.8,53.41,4,74.31Z"/><polygon fill="#3c3b41" points="50.26 140.88 74.96 166.32 96.58 144.35 72.35 119.39 50.26 140.88"/><path fill="#c8c6cb" d="M296.24,40.41H269.53V12.5a4.94,4.94,0,0,0-4.86-5H247.33a4.94,4.94,0,0,0-4.86,5V40.41H215.76a4.93,4.93,0,0,0-4.85,5V62.66a4.93,4.93,0,0,0,4.85,5h26.71V103.8h27.06V67.66h26.71a4.93,4.93,0,0,0,4.85-5V45.41A4.93,4.93,0,0,0,296.24,40.41Z"/><path fill="#8b8992" d="M299.15,103.8H212.39c-9.63,0-16.6,9.45-14,19l16.88,62.69h79.58l18.27-62.36C315.91,113.5,308.92,103.8,299.15,103.8Z"/><path fill="#3c3b41" d="M305.66,148.45a7.08,7.08,0,0,0-1.55-.17H207.9a6.93,6.93,0,0,0-2.55.48l3.91,14.52h92.07Z"/><path fill="#2a2a2c" d="M304.11,148.28H289.55a7.15,7.15,0,0,1,1.55.17l-4.33,14.83h14.56l4.33-14.83A7.08,7.08,0,0,0,304.11,148.28Z"/><path fill="#3c3b41" d="M168.08,474.26H343.92a15.46,15.46,0,0,1,15.46,15.46V504.3a0,0,0,0,1,0,0H152.62a0,0,0,0,1,0,0V489.72A15.46,15.46,0,0,1,168.08,474.26Z"/><path fill="#8b8992" d="M320.36,398.42H191.64a14.58,14.58,0,0,0-13.54,9.48l-17.61,45.91c-3.78,9.84,3.26,20.5,13.54,20.5H338c10.28,0,17.32-10.66,13.54-20.5L333.9,407.9A14.58,14.58,0,0,0,320.36,398.42Z"/><rect width="126.19" height="29.99" x="192.9" y="185.49" fill="#3c3b41" rx="10.73"/><polygon fill="#c8c6cb" points="310.35 398.41 201.65 398.41 216.21 215.44 295.79 215.44 310.35 398.41"/><path fill="#070606" d="M503.66,471.66a20,20,0,0,0,1.08-17l-15.06-38.23a19.86,19.86,0,0,0-18.55-12.64h-1.67L458.24,266.47h1.9A17.45,17.45,0,0,0,477.54,249V238.91a17.07,17.07,0,0,0-.2-2.49,15.82,15.82,0,0,0,14.73-15.77V145.73a7.49,7.49,0,0,0-7.48-7.5H459.67a7.49,7.49,0,0,0-7.48,7.5v32.18H441.05V145.73a7.49,7.49,0,0,0-7.48-7.5h-35a7.49,7.49,0,0,0-7.48,7.5v32.18H380V145.73a7.49,7.49,0,0,0-7.48-7.5H347.57a7.49,7.49,0,0,0-7.49,7.5v74.92a15.82,15.82,0,0,0,14.73,15.77,18.59,18.59,0,0,0-.19,2.49V249A17.44,17.44,0,0,0,372,266.47h1.91L362.69,403.8H361a19.79,19.79,0,0,0-16,8.12l-2.6-6.61a22.32,22.32,0,0,0-20.88-14.23h-3.39l-13.73-168h5a18.39,18.39,0,0,0,18.35-18.39v-8.21a18.4,18.4,0,0,0-18.35-18.4h-4l5.89-19.54a7.9,7.9,0,0,0,.32-1.08L327,106a7.49,7.49,0,0,0-7.16-9.67H276.75V75.18h25a7.49,7.49,0,0,0,7.48-7.5V40.43a7.49,7.49,0,0,0-7.48-7.5h-25V7.5A7.49,7.49,0,0,0,269.27,0h-27.8A7.49,7.49,0,0,0,234,7.5V32.93H209a7.49,7.49,0,0,0-7.48,7.5V67.68a7.49,7.49,0,0,0,7.48,7.5H234V96.34h-43.1a7.49,7.49,0,0,0-7.21,9.5l20,72.22H201.4a18.4,18.4,0,0,0-18.35,18.4v8.21a18.39,18.39,0,0,0,18.35,18.39h5l-13.74,168h-3.39a22.27,22.27,0,0,0-18.18,9.31,20.8,20.8,0,0,0-8.36-1.75h-2.37L148.07,248.83h3.13A17.85,17.85,0,0,0,169,231v-9.32a17.76,17.76,0,0,0-4.12-11.4,57,57,0,0,0-10-78.9L116.56,93a18.58,18.58,0,0,0-26.09-.18L67.36,115.31a7.32,7.32,0,0,0-1.47,1.1L50.4,131.47a57,57,0,0,0-8.71,78.47,17.72,17.72,0,0,0-4.42,11.73V231a17.84,17.84,0,0,0,17.79,17.84H58.2L46,398.64H43.58A20.83,20.83,0,0,0,24.1,411.92L7.79,453.28a21,21,0,0,0,1.29,18.1,22.39,22.39,0,0,0-9.08,18V504.5A7.49,7.49,0,0,0,7.48,512h497a7.49,7.49,0,0,0,7.48-7.5V488.81A21.79,21.79,0,0,0,503.66,471.66ZM355.87,221.48a.83.83,0,0,1-.82-.83V153.23H365v32.18a7.49,7.49,0,0,0,7.48,7.5h26.1a7.49,7.49,0,0,0,7.49-7.5V153.23h20v32.18a7.49,7.49,0,0,0,7.48,7.5h26.1a7.49,7.49,0,0,0,7.49-7.5V153.23h9.95v67.42a.83.83,0,0,1-.83.83H355.87Zm16.14,30a2.44,2.44,0,0,1-2.43-2.44V238.91a2.43,2.43,0,0,1,2.37-2.43h88.26a2.43,2.43,0,0,1,2.36,2.43V249a2.44,2.44,0,0,1-2.43,2.44H372ZM454.45,403.8H377.71l11.22-137.33h54.29ZM216.51,60.18V47.93h25a7.49,7.49,0,0,0,7.48-7.5V15h12.84V40.43a7.49,7.49,0,0,0,7.48,7.5h25V60.18h-25a7.49,7.49,0,0,0-7.48,7.5V96.34H249V67.68a7.49,7.49,0,0,0-7.48-7.5Zm-15.8,51.16H309.79l-11.14,37-87.66.13Zm93.42,52-4.43,14.71H219.17l-4-14.59ZM201.4,208.06a3.39,3.39,0,0,1-3.39-3.39v-8.21a3.4,3.4,0,0,1,3.39-3.4H309.34a3.4,3.4,0,0,1,3.39,3.4v8.21a3.39,3.39,0,0,1-3.39,3.39H297.05c-.26,0-.53,0-.79,0H214.48c-.27,0-.53,0-.79,0Zm101.7,183H207.64l13.73-168h68ZM180.67,414.89a3.42,3.42,0,0,0,.13-.34l1.47-3.73a7.45,7.45,0,0,1,7-4.74H321.5a7.44,7.44,0,0,1,7,4.74l18.1,45.92a7.5,7.5,0,0,1-6,10.2H170.2a7.35,7.35,0,0,1-5.26-3.22,7.45,7.45,0,0,1-.77-7ZM62.41,141l8.77-8.52L84,145.29l-8.74,8.63L62.36,141.05ZM45,171.76a41.94,41.94,0,0,1,7-19.9l17.89,17.93a7.46,7.46,0,0,0,10.54,0l19.4-19.16a7.52,7.52,0,0,0,0-10.65l-17.93-18,18.95-18.42a3.73,3.73,0,0,1,5.11,0l38.64,38.64a7.87,7.87,0,0,0,.68.6,42,42,0,0,1,5.52,60.93H56.11A42,42,0,0,1,45,171.76Zm10.05,62.07A2.84,2.84,0,0,1,52.23,231v-9.32a2.84,2.84,0,0,1,2.83-2.84H151.2a2.84,2.84,0,0,1,2.83,2.84V231a2.84,2.84,0,0,1-2.83,2.84ZM145.3,398.64H61L73.21,248.85h59.85Zm-3.65,91.5V497H15v-7.62A7.38,7.38,0,0,1,22.32,482h120.8A23.14,23.14,0,0,0,141.65,490.14ZM150,467H27.29a6,6,0,0,1-5.58-8.22L38,417.44a6,6,0,0,1,5.57-3.8H52.1c.25,0,.5,0,.75,0H153.43c.25,0,.5,0,.74,0h8.52a5.88,5.88,0,0,1,2.21.43l-14.64,37.16A22.54,22.54,0,0,0,150,467Zm204.15,30H156.61v-6.86a8.2,8.2,0,0,1,7.27-8.14H339.6q.78,0,1.53-.06h3.39l.83.06h1.58a8.2,8.2,0,0,1,7.19,8.13Zm6.64-30a22.54,22.54,0,0,0-.28-15.77l-7.81-19.82,3.72-9.45A5,5,0,0,1,361,418.8h7.73a7.7,7.7,0,0,0,.83.05h93a7.55,7.55,0,0,0,.83-.05h7.73a5,5,0,0,1,4.63,3.15l15.07,38.24a5,5,0,0,1-4.46,6.81ZM497,497h-128v-6.86a23.08,23.08,0,0,0-1.47-8.13H490.24a6.81,6.81,0,0,1,6.8,6.81Z"/></svg>