<svg xmlns="http://www.w3.org/2000/svg" data-name="Layer 1" viewBox="0 0 512 512"><path fill="#c8ae93" d="M479.91 346.4C448.84 408.32 351.17 442.89 305 419.72s-23.39-95.31 7.68-157.24 93.7-93.34 139.89-70.17S511 284.47 479.91 346.4zM32.09 348.69C63.16 410.61 160.83 445.18 207 422s23.39-95.31-7.68-157.24-93.7-93.34-139.89-70.17S1 286.76 32.09 348.69z"/><path fill="#654a36" d="M89.5,459.35H430.2a15,15,0,0,1,15,15v30a0,0,0,0,1,0,0H74.5a0,0,0,0,1,0,0v-30A15,15,0,0,1,89.5,459.35Z"/><ellipse cx="260" cy="285.64" fill="#ddccbf" rx="116.28" ry="139.32"/><path fill="#b18c6b" d="M411.67,414.25H108a15,15,0,0,0-15,15v30.1H426.67v-30.1A15,15,0,0,0,411.67,414.25Z"/><path fill="#070606" d="M506.64,251.63c-5.59-31.5-22.17-55.61-46.68-67.9-16.26-8.16-35.06-10.44-54.37-6.59-15.81,3.15-31.66,10.35-46.29,21-21.86-34.86-55.37-56.31-91.95-58.86V91.39h22.5a7.5,7.5,0,0,0,0-15h-22.5v-25a7.5,7.5,0,1,0-15,0v25h-22.5a7.5,7.5,0,0,0,0,15h22.5v47.87A110.08,110.08,0,0,0,197.59,159a135.72,135.72,0,0,0-39.52,43.5C124,175.1,84,167.94,52,184,27.53,196.29,11,220.4,5.36,251.89c-5.45,30.68.22,64.87,16,96.25,12.3,24.52,35.84,46.89,65.15,62.62a7.48,7.48,0,0,0-1,3.64v38A22.53,22.53,0,0,0,67,474.5v30a7.5,7.5,0,0,0,7.5,7.5H445.2a7.5,7.5,0,0,0,7.5-7.5v-30a22.53,22.53,0,0,0-18.54-22.14v-38a7.49,7.49,0,0,0-3.85-6.55c27.09-15.54,48.73-36.78,60.36-60C506.42,316.5,512.09,282.31,506.64,251.63ZM167,217.53C186.89,177.73,221.68,154,260,154c36.45,0,70.31,22,90.58,58.87,11.91,21.63,18.2,46.86,18.2,73,0,52.92-25.8,100.23-65.86,121.11H217c-.55-.28-1.12-.59-1.75-.94-38.91-21.34-64.05-68.51-64.05-120.17A152.83,152.83,0,0,1,167,217.53Zm138,204.75.69-.13.3-.09.52-.16H419.16V452H100.53V421.9H301.34a4.43,4.43,0,0,0,.47.17c.13,0,.26.05.38.08s.43.11.64.14.41,0,.61,0l.42,0h0M34.73,341.42c-29.16-58.13-18.38-122.74,24-144,27.32-13.7,62.27-6.49,92.27,18.7a168.81,168.81,0,0,0-14.81,69.7c0,48.74,20.59,94,53.8,121.11H113.94C77.92,393,48.37,368.58,34.73,341.42Zm403,133.08V497H82V474.5a7.51,7.51,0,0,1,7.5-7.5H430.2A7.5,7.5,0,0,1,437.7,474.5Zm39.57-133.34c-13.73,27.35-43.53,51.85-79.88,65.74H330c33.25-27,53.74-71.95,53.74-121.11a167.68,167.68,0,0,0-17.1-74.5c28.6-21.33,61.32-26.82,86.56-14.16,20.17,10.12,33.89,30.41,38.63,57.12C496.76,281.77,491.57,312.64,477.27,341.16Z"/></svg>