<svg xmlns="http://www.w3.org/2000/svg" data-name="Layer 1" viewBox="0 0 512 512"><path fill="#9f7855" d="M170,474.51H34.73a10,10,0,0,0-9.52,7l-7.35,23h169l-7.34-23A10,10,0,0,0,170,474.51Z"/><path fill="#ddccbf" d="M111.69,367.16l5.51,19.42a84.5,84.5,0,0,0,25.61,40.9l25,22v-.1l.71,25.11H36.17L27.3,454.2A140.85,140.85,0,0,1,43,288.77,82.37,82.37,0,0,1,62,273l41.08-24.86v23.74a5.67,5.67,0,0,0,1.9,4.22l72.65,64.34a8.45,8.45,0,0,1,1.49,10.91l-4.65,7.18a8.44,8.44,0,0,1-10.63,3.08L145.07,353v0h0a57.63,57.63,0,0,1-76,0h0"/><circle cx="412" cy="99.99" r="92.5" fill="#c8c6cb"/><path fill="#2a2a2c" d="M422.61,100l39.51-39.52a7.5,7.5,0,0,0-10.61-10.6L412,89.38,372.49,49.87a7.5,7.5,0,0,0-10.61,10.6L401.39,100,361.88,139.5a7.5,7.5,0,0,0,10.61,10.61L412,110.59l39.51,39.52a7.5,7.5,0,0,0,10.61-10.61Z"/><path fill="#070606" d="M96.41 314.52zm1 0h0zm0-2.87zM86.29 32.24a7.56 7.56 0 0 0 2.33-.37 85 85 0 0 1 26.26-4.18 7.5 7.5 0 0 0 0-15h0A99.83 99.83 0 0 0 84 17.61a7.5 7.5 0 0 0 2.32 14.63zM200 112.5v.19A84.75 84.75 0 0 1 195.87 139a7.5 7.5 0 1 0 14.27 4.63 99.94 99.94 0 0 0 4.87-30.9v-.19a7.5 7.5 0 0 0-15 0zm-4.19-26.24A7.5 7.5 0 0 0 203 91.43a7.61 7.61 0 0 0 2.33-.37 7.51 7.51 0 0 0 4.8-9.46A99.37 99.37 0 0 0 195.8 53.76a7.5 7.5 0 1 0-12.11 8.85A84.51 84.51 0 0 1 195.82 86.26zm142.29 227.6A100.37 100.37 0 0 0 316 336a7.5 7.5 0 1 0 12.14 8.81A85.57 85.57 0 0 1 347 326a7.5 7.5 0 1 0-8.84-12.12zm-197-282.07a84.54 84.54 0 0 1 23.7 12 7.5 7.5 0 0 0 8.8-12.14 99.23 99.23 0 0 0-27.89-14.18 7.5 7.5 0 0 0-4.61 14.28zm.16 161.75a84.65 84.65 0 0 1-26.26 4.15 7.5 7.5 0 0 0 0 15h0A99.84 99.84 0 0 0 146 207.81a7.5 7.5 0 1 0-4.64-14.27zm53-32.55a7.5 7.5 0 0 0-10.48 1.65A85.14 85.14 0 0 1 165 181.45a7.5 7.5 0 1 0 8.83 12.13 100.16 100.16 0 0 0 22.1-22.12A7.49 7.49 0 0 0 194.27 161zM412 200A100 100 0 1 0 312 100 100.11 100.11 0 0 0 412 200zm0-185a85 85 0 1 1-85 85A85.1 85.1 0 0 1 412 15zM361.88 150.12a7.5 7.5 0 0 0 10.61 0L412 110.61l39.51 39.51a7.5 7.5 0 0 0 10.61-10.61L422.61 100l39.51-39.51a7.5 7.5 0 1 0-10.61-10.61L412 89.39 372.49 49.88a7.5 7.5 0 0 0-10.61 10.61L401.4 100l-39.52 39.51A7.5 7.5 0 0 0 361.88 150.12zm35 144.57A99.92 99.92 0 0 0 366 299.61a7.5 7.5 0 1 0 4.65 14.26 85.07 85.07 0 0 1 26.26-4.18 7.5 7.5 0 0 0 0-15zm30.9 4.82a7.5 7.5 0 1 0-4.6 14.28 84.48 84.48 0 0 1 23.69 12 7.5 7.5 0 1 0 8.81-12.14A99.28 99.28 0 0 0 427.75 299.51zm39.57 34.62a7.49 7.49 0 0 0-1.63 10.48 84.22 84.22 0 0 1 12.12 23.65 7.5 7.5 0 1 0 14.26-4.66 99.6 99.6 0 0 0-14.27-27.84A7.49 7.49 0 0 0 467.32 334.13zM22.51 120.24a7.55 7.55 0 0 0 7.5-7.55 84.75 84.75 0 0 1 4.11-26.18 7.5 7.5 0 1 0-14.27-4.62A99.88 99.88 0 0 0 15 112.69v.1A7.46 7.46 0 0 0 22.51 120.24zM312 394.69a85.05 85.05 0 0 1 4.11-26.18 7.5 7.5 0 1 0-14.27-4.62 99.88 99.88 0 0 0-4.84 30.8v.1a7.46 7.46 0 0 0 7.5 7.45A7.54 7.54 0 0 0 312 394.69zm-1.16-204.37a7.51 7.51 0 0 0-9.28-5.15c-42.89 12.25-53.84 75.53-63.51 131.37-4.4 25.39-8.55 49.38-15.13 66.18-8.07 20.61-16.63 22.2-23.21 21.28a7.5 7.5 0 1 0-2.08 14.85 33.86 33.86 0 0 0 4.76.34c14.85 0 26.44-10.41 34.5-31C244 370 248.3 345.26 252.83 319.09c8.91-51.48 19-109.83 52.86-119.5A7.51 7.51 0 0 0 310.84 190.32zM184.45 472.22a7.49 7.49 0 0 0-7.14-5.22h-1.46l-.5-17.83a7.49 7.49 0 0 0-3.4-6.07l-24.18-21.29a76.88 76.88 0 0 1-23.34-37.32l-3.21-11.29a64.8 64.8 0 0 0 25-11.48l14.51 6.69a16 16 0 0 0 20.07-5.82l4.64-7.18a15.85 15.85 0 0 0-2.81-20.6l-72-63.79v-22.9a7.5 7.5 0 0 0-11.38-6.42L58.12 266.56a89.84 89.84 0 0 0-20.76 17.19A148.34 148.34 0 0 0 20.62 457.58l4.3 9.87a7.5 7.5 0 0 0-4.63 4.77l-9.56 30A7.5 7.5 0 0 0 17.87 512h169a7.5 7.5 0 0 0 7.15-9.78zM48.57 293.7a75 75 0 0 1 17.32-14.3l29.7-18v10.44a13.14 13.14 0 0 0 4.43 9.83L172.66 346a1 1 0 0 1 .17 1.22l-4.64 7.18a1 1 0 0 1-1.2.34l-18.77-8.64a7.47 7.47 0 0 0-8.25 1.34 50.28 50.28 0 0 1-66-.14 7.5 7.5 0 1 0-9.9 11.27 65 65 0 0 0 42 16.13L110 388.53a91.68 91.68 0 0 0 27.87 44.54L160.45 453l.4 14H41.09l-6.91-15.83a6.58 6.58 0 0 0-.42-.84A132.82 132.82 0 0 1 48.57 293.7zM28.13 497l4.79-15h138.9l4.79 15zm342.65-21.43a84.7 84.7 0 0 1-23.69-12.07 7.5 7.5 0 0 0-8.82 12.14 99.49 99.49 0 0 0 27.88 14.2 7.5 7.5 0 1 0 4.63-14.27zM65.1 181.5a7.5 7.5 0 1 0-8.82 12.14 99.49 99.49 0 0 0 27.88 14.2 7.5 7.5 0 1 0 4.62-14.27A84.78 84.78 0 0 1 65.1 181.5zM476.26 443a7.49 7.49 0 0 0-10.47 1.65A85.4 85.4 0 0 1 447 463.45a7.5 7.5 0 1 0 8.83 12.13 100.2 100.2 0 0 0 22.11-22.12A7.5 7.5 0 0 0 476.26 443zM316.16 421a7.5 7.5 0 1 0-14.26 4.64 99.39 99.39 0 0 0 14.25 27.86 7.5 7.5 0 0 0 12.12-8.84A84.65 84.65 0 0 1 316.16 421zm107.15 54.5a84.74 84.74 0 0 1-26.26 4.15 7.5 7.5 0 1 0 0 15h0A99.88 99.88 0 0 0 428 489.81a7.5 7.5 0 0 0-4.64-14.27zM24.72 134.23a7.5 7.5 0 0 0-4.81 9.45 99.63 99.63 0 0 0 14.24 27.86 7.5 7.5 0 1 0 12.12-8.84A84.62 84.62 0 0 1 34.17 139 7.49 7.49 0 0 0 24.72 134.23zm11-69.75a7.49 7.49 0 0 0 10.47-1.67A85.4 85.4 0 0 1 65 44a7.5 7.5 0 1 0-8.84-12.12A100.37 100.37 0 0 0 34 54 7.5 7.5 0 0 0 35.7 64.48zM489.5 387a7.5 7.5 0 0 0-7.5 7.5v.19A85 85 0 0 1 477.87 421a7.5 7.5 0 1 0 14.26 4.63 99.94 99.94 0 0 0 4.87-30.9v-.19A7.5 7.5 0 0 0 489.5 387zM96.9 329.6a14.25 14.25 0 1 0-14.24-14.25A14.25 14.25 0 0 0 96.9 329.6zM54.66 460.3a7.5 7.5 0 0 0 12.9-7.66c-2.34-3.93-4.64-7.7-6.87-11.35-19.36-31.71-31-50.84-12.25-79.12A7.5 7.5 0 1 0 36 353.87c-24.09 36.24-7.39 63.58 11.94 95.23C50.09 452.72 52.37 456.45 54.66 460.3z"/></svg>