<svg xmlns="http://www.w3.org/2000/svg" data-name="Layer 1" viewBox="0 0 512 512"><path fill="#3c3b41" d="M269.06,468.4,244.43,504H497V487a18.6,18.6,0,0,0-18.6-18.6H269.06Z"/><path fill="#8b8992" d="M266.16,413.56l-.89,2.25-10.54,42.94a.08.08,0,0,0,0,.05l14.31,9.6,34.21.07H470.85c.52,0,1,0,1.53-.07a17.76,17.76,0,0,0,15-24.22L465.87,389.8a17.78,17.78,0,0,0-16.54-11.23h-150Z"/><polygon fill="#c8c6cb" points="321.63 167.67 321.63 167.66 322.11 161.87 419.32 161.87 437.1 378.57 437.1 378.63 304.33 378.63 304.33 378.57 305.22 367.77 307.39 341.38 311.09 296.18 314.8 250.99 321.63 167.67"/><path fill="#3c3b41" d="M319.56,161.85H434.88a12.91,12.91,0,0,0,12.91-12.91v-9.7a12.91,12.91,0,0,0-12.91-12.91H306.55a12.67,12.67,0,0,0-3.16.4Z"/><path fill="#8b8992" d="M302.65,126.42h154a11.85,11.85,0,0,0,11.86-11.84V8H433V64.44H395.69V8H345.74V64.44H308.46V8H272.89V84.55Z"/><path fill="#725537" d="M42.45,458.75H289.23a15,15,0,0,1,14,9.7L316.68,504H15l13.41-35.54A15,15,0,0,1,42.45,458.75Z"/><path fill="#9f7855" d="M77.85,413.56h176A30.14,30.14,0,0,1,284,443.68V458.8H47.68V443.68A30.14,30.14,0,0,1,77.85,413.56Z"/><path fill="#ddccbf" d="M148.78,223.44l-9.44,33.32a150.55,150.55,0,0,1-45.7,72.91L49,369v-.18l-1.27,44.77H284l15.83-36.26A250.81,250.81,0,0,0,271.89,82.4a147.35,147.35,0,0,0-34-28.07L164.55,10V56.86L21.78,183.14l22.44,34.63L89.6,196.89l0,.05h0c40.89,35.84,94.87,35.84,135.76,0h0Z"/><path fill="#c9ad90" d="M80,201.32c-1.8-1.4-3.59-2.85-5.34-4.38h0l0-.05L40.77,212.45l3.45,5.32Z"/><ellipse cx="160.85" cy="124.07" fill="#725537" rx="17.79" ry="17.76"/><path fill="#725537" d="M314.4,348.88H277.75a7.5,7.5,0,0,1,0-15h39.82a7.34,7.34,0,0,1,2.62.48Z"/><path fill="#654a36" d="M317.57,333.88h-15a7.34,7.34,0,0,1,2.62.48l-5.79,14.52h15l5.79-14.52A7.34,7.34,0,0,0,317.57,333.88Z"/><path fill="#725537" d="M331.79,290.11a7.41,7.41,0,0,0-4.39-1.43H262.67a7.5,7.5,0,0,0,0,15H327.4a7,7,0,0,0,1.79-.22Z"/><path fill="#654a36" d="M327.4,288.68h-15a7.41,7.41,0,0,1,4.39,1.43l-2.6,13.35a7,7,0,0,1-1.79.22h15a7,7,0,0,0,1.79-.22l2.6-13.35A7.41,7.41,0,0,0,327.4,288.68Z"/><path fill="#725537" d="M335.12,243.78a7.31,7.31,0,0,0-2.05-.29H247.58a7.5,7.5,0,0,0,0,15h85.49a7.18,7.18,0,0,0,1.92-.26Z"/><path fill="#654a36" d="M333.07,243.49h-15a7.31,7.31,0,0,1,2.05.29L320,258.23a7.18,7.18,0,0,1-1.92.26h15a7.18,7.18,0,0,0,1.92-.26l.13-14.45A7.31,7.31,0,0,0,333.07,243.49Z"/><path fill="#070606" d="M491.91,465.18c.14-.22.29-.43.43-.66a25,25,0,0,0,2-22.59l-21.51-54.38a25.15,25.15,0,0,0-23.52-16H444L427.46,169.86h7.42a20.44,20.44,0,0,0,20.41-20.41v-9.7a20.08,20.08,0,0,0-1-6.33h2.41A19.37,19.37,0,0,0,476,114.08V7.5a7.5,7.5,0,0,0-7.5-7.5H433a7.5,7.5,0,0,0-7.5,7.5V56.44H403.19V7.5a7.5,7.5,0,0,0-7.5-7.5H345.74a7.5,7.5,0,0,0-7.5,7.5V56.44H316V7.5a7.5,7.5,0,0,0-7.5-7.5H272.89a7.5,7.5,0,0,0-7.5,7.5V65.81a158.14,158.14,0,0,0-23.62-17.39L168.43,4.1a7.51,7.51,0,0,0-11.38,6.42V54L16.81,178a7.49,7.49,0,0,0-1.32,9.69l22.43,34.63a7.5,7.5,0,0,0,9.43,2.73l41-18.87c15.47,12.59,32.74,20.71,50.84,24l-7.1,25.07a142.8,142.8,0,0,1-43.43,69.29L45.17,362.82a7.5,7.5,0,0,0-3.72,6.26l-1.27,44.77a7.5,7.5,0,0,0,7.5,7.71h.1a37.37,37.37,0,0,0-7.6,22.63v7.56h-8.1a7.5,7.5,0,0,0-7,4.85L8,501.85A7.5,7.5,0,0,0,15,512H497a7.5,7.5,0,0,0,7.5-7.5v-17A26.11,26.11,0,0,0,491.91,465.18Zm-63-93.6H312a259.51,259.51,0,0,0,12.47-26.71,1.54,1.54,0,0,0,.08-.19,256.3,256.3,0,0,0,16.93-120.22,259.51,259.51,0,0,0-11.28-54.58h82.24Zm11.33-222.13a5.42,5.42,0,0,1-5.41,5.41H324.81q-4.11-10.47-9.13-20.52h119.2a5.41,5.41,0,0,1,5.41,5.41ZM280.39,15H301V63.94a7.5,7.5,0,0,0,7.5,7.5h37.28a7.5,7.5,0,0,0,7.5-7.5V15h34.95V63.94a7.5,7.5,0,0,0,7.5,7.5H433a7.5,7.5,0,0,0,7.5-7.5V15H461v99.08a4.36,4.36,0,0,1-4.36,4.34H307a259,259,0,0,0-26.65-37.17Zm-224,358,42.24-37.15a157.64,157.64,0,0,0,48-76.5l7.79-27.53c1.05,0,2.1,0,3.15,0,26.19,0,51.37-9.93,72.82-28.74a7.5,7.5,0,1,0-9.89-11.27c-21.13,18.52-45.67,26.81-69.86,24.85a7.61,7.61,0,0,0-2.21-.21c-18.67-2-37.05-10.09-53.41-24.3a7.47,7.47,0,0,0-8.49-1.57L47,208.74,31.59,185,169.52,63a7.51,7.51,0,0,0,2.53-5.62V23.82l62,37.44a139.43,139.43,0,0,1,32.26,26.63,245.55,245.55,0,0,1,29.42,40.83,7.32,7.32,0,0,0,.82,1.51,7.92,7.92,0,0,0,.94,1.6,241.88,241.88,0,0,1,14.7,31.67,7.44,7.44,0,0,0,1.08,2.88c.32.89.63,1.78.95,2.68a7.39,7.39,0,0,0,1,3A241.76,241.76,0,0,1,327.82,244H247.58a7.5,7.5,0,0,0,0,15h80.1a241.93,241.93,0,0,1-3.12,30.19H262.67a7.5,7.5,0,0,0,0,15h58.88a241.06,241.06,0,0,1-9.13,30.19H277.75a7.5,7.5,0,0,0,0,15h28.46A245.84,245.84,0,0,1,293.39,374a7.27,7.27,0,0,0-.43.83l-13.87,31.76H55.4Zm-1.17,71.23a22.67,22.67,0,0,1,22.67-22.63h176a22.67,22.67,0,0,1,22.67,22.63v7.56H55.18ZM244.43,497H25.85l11.41-30.25H46.8a6.4,6.4,0,0,0,.88.06H284a6.4,6.4,0,0,0,.88-.06h9.54l1.83,4.87.09.23L305.83,497Zm62.19-40.4a7.51,7.51,0,0,0-7-4.85h-8.1v-7.56a37.37,37.37,0,0,0-7.6-22.63h.1a7.48,7.48,0,0,0,6.87-4.5l13.29-30.43H437.1c.3,0,.6,0,.9-.06h11.33a10.22,10.22,0,0,1,9.57,6.49l21.52,54.37a10.26,10.26,0,0,1-8.48,14H308.43ZM489.5,497H321.86l-7.74-20.52H470.85c.63,0,1.21,0,1.78-.07h5.77a11.11,11.11,0,0,1,11.1,11.1ZM160.85,99.32a25.26,25.26,0,1,0,25.29,25.26A25.3,25.3,0,0,0,160.85,99.32Zm0,35.52a10.26,10.26,0,1,1,10.29-10.26A10.28,10.28,0,0,1,160.85,134.84Z"/></svg>