<svg xmlns="http://www.w3.org/2000/svg" data-name="Layer 1" viewBox="0 0 512 512"><path fill="#9f7855" d="M127.62,459.44H366a20,20,0,0,1,18.71,12.95l12.1,32.11H96.8l12.11-32.11A20,20,0,0,1,127.62,459.44Z"/><path fill="#ddccbf" d="M230.25,268.83l-9.79,34.48A150,150,0,0,1,175,375.91l-44.45,39.14v-.18l-1.26,44.57h235l15.75-36.1a250,250,0,0,0-27.79-293.66,146.66,146.66,0,0,0-33.8-27.94L245.52,57.61V99.75a10,10,0,0,1-3.37,7.49L113.21,221.45a15,15,0,0,0-2.65,19.38l8.24,12.73A15,15,0,0,0,137.67,259L171,243.69l0,.05h0a102.31,102.31,0,0,0,135,0h0"/><path fill="#c9ad90" d="M156,243.69l-32,14.75a15,15,0,0,0,13.7.6l23.72-10.93c-1.83-1.39-3.63-2.83-5.38-4.37h0Z"/><path fill="#654a36" d="M320,430.84a7.5,7.5,0,0,1-6.44-11.33c4.13-6.95,8.21-13.63,12.16-20.09,34.34-56.25,57-93.41,21.63-146.69a7.5,7.5,0,1,1,12.49-8.3c40.7,61.24,13.33,106.06-21.32,162.81-3.92,6.42-8,13.07-12.06,19.93A7.51,7.51,0,0,1,320,430.84Z"/><circle cx="241.85" cy="171.18" r="15" fill="#654a36"/><path fill="#070606" d="M241.84,148.68a22.5,22.5,0,1,0,22.5,22.5A22.53,22.53,0,0,0,241.84,148.68Zm0,30a7.5,7.5,0,1,1,7.5-7.5A7.5,7.5,0,0,1,241.84,178.68Zm118,65.75a7.5,7.5,0,1,0-12.49,8.3c35.4,53.28,12.71,90.44-21.63,146.69-3.95,6.46-8,13.14-12.15,20.09a7.5,7.5,0,1,0,12.89,7.66c4.08-6.86,8.14-13.51,12.06-19.93C373.2,350.49,400.57,305.67,359.87,244.43Zm31.84,225.32a27.62,27.62,0,0,0-16.65-16.23l11.67-26.75A257.54,257.54,0,0,0,357.86,124.7a153.76,153.76,0,0,0-35.53-29.38L249.4,51.19A7.5,7.5,0,0,0,238,57.61V99.75a2.47,2.47,0,0,1-.84,1.87L108.22,215.83a22.38,22.38,0,0,0-4,29.07l8.24,12.74a22.62,22.62,0,0,0,28.31,8.21l29-13.35a109.27,109.27,0,0,0,50.88,22.62l-7.44,26.19a142.14,142.14,0,0,1-43.18,69l-43.27,38.1a7.48,7.48,0,0,0-3.71,6.26L122,452.55a27.66,27.66,0,0,0-20.11,17.2l-12.1,32.1a7.5,7.5,0,0,0,7,10.15h300a7.5,7.5,0,0,0,7-10.15ZM138,418.53l42-37a157,157,0,0,0,47.7-76.18l8.19-28.83A109.65,109.65,0,0,0,311,249.38a7.5,7.5,0,0,0-9.9-11.28,95.08,95.08,0,0,1-124.71.35,7.5,7.5,0,0,0-8.5-1.57l-33.32,15.35a7.53,7.53,0,0,1-9.43-2.74l-8.25-12.74a7.46,7.46,0,0,1,1.33-9.69l129-114.21A17.53,17.53,0,0,0,253,99.75V70.91l61.56,37.24a139.11,139.11,0,0,1,32.07,26.51,241.56,241.56,0,0,1,27,284.85,5.92,5.92,0,0,0-.43.83l-13.79,31.6H137ZM107.64,497l8.27-22a12.58,12.58,0,0,1,11.7-8.1H366a12.58,12.58,0,0,1,11.7,8.1L386,497Z"/></svg>