<svg xmlns="http://www.w3.org/2000/svg" data-name="Layer 1" viewBox="0 0 512 512"><path fill="#8b8992" d="M277.52,185.39a62.5,62.5,0,1,0-43,0Z"/><path fill="#78777f" d="M256,64.19a64,64,0,0,0-7.5.46,62.51,62.51,0,0,1,14,120.74h15A62.51,62.51,0,0,0,256,64.19Z"/><path fill="#3c3b41" d="M165.2,474.44H346.8a15.7,15.7,0,0,1,15.7,15.7V504.5a0,0,0,0,1,0,0h-213a0,0,0,0,1,0,0V490.14A15.7,15.7,0,0,1,165.2,474.44Z"/><path fill="#2a2a2c" d="M346.8,474.44h-7.14a16.07,16.07,0,0,1,12.75,15.72V504.5H362.5V490.14A15.7,15.7,0,0,0,346.8,474.44Z"/><path fill="#8b8992" d="M322.3,398.58H189.7a15,15,0,0,0-13.95,9.49L157.61,454a15,15,0,0,0,13.95,20.51H340.44A15,15,0,0,0,354.39,454l-18.14-45.92A15,15,0,0,0,322.3,398.58Z"/><path fill="#78777f" d="M354.39,454l-18.14-45.92a15,15,0,0,0-13.95-9.49h-15a15,15,0,0,1,13.95,9.49L339.39,454a15,15,0,0,1-13.95,20.51h15A15,15,0,0,0,354.39,454Z"/><polygon fill="#c8c6cb" points="311.99 398.56 200.01 398.56 215.01 215.5 296.99 215.5 311.99 398.56"/><polygon fill="#c8c6cb" points="311.99 398.56 200.01 398.56 215.01 215.5 296.99 215.5 311.99 398.56"/><polygon fill="#aeadb3" points="296.99 215.5 281.99 215.5 296.99 398.56 311.99 398.56 296.99 215.5"/><rect width="130" height="30" x="191" y="185.39" fill="#3c3b41" rx="10.9"/><path fill="#2a2a2c" d="M310.1,185.39h-15a10.9,10.9,0,0,1,10.9,10.9v8.21a10.89,10.89,0,0,1-10.9,10.89h15A10.89,10.89,0,0,0,321,204.5v-8.21A10.9,10.9,0,0,0,310.1,185.39Z"/><path fill="#070606" d="M359.81,471a22.48,22.48,0,0,0,1.56-19.72l-18.15-45.92a22.36,22.36,0,0,0-20.92-14.23h-3.4L305.12,222.89h5a18.41,18.41,0,0,0,18.4-18.39v-8.21a18.42,18.42,0,0,0-18.4-18.4h-6.42a70,70,0,1,0-95.36,0H201.9a18.42,18.42,0,0,0-18.4,18.4v8.21a18.41,18.41,0,0,0,18.4,18.39h5L193.1,391.08h-3.4a22.36,22.36,0,0,0-20.92,14.23l-18.15,45.92A22.48,22.48,0,0,0,152.19,471,23.16,23.16,0,0,0,142,490.14V504.5a7.5,7.5,0,0,0,7.5,7.5h213a7.5,7.5,0,0,0,7.5-7.5V490.14A23.16,23.16,0,0,0,359.81,471ZM201,126.69a55,55,0,1,1,75.11,51.2H235.89A55.2,55.2,0,0,1,201,126.69Zm.9,81.2a3.4,3.4,0,0,1-3.4-3.39v-8.21a3.4,3.4,0,0,1,3.4-3.4H310.1a3.4,3.4,0,0,1,3.4,3.4v8.21a3.4,3.4,0,0,1-3.4,3.39Zm102,183.17h-95.7L221.92,223h68.16ZM164.58,456.74l18.15-45.92a7.44,7.44,0,0,1,7-4.74H322.3a7.44,7.44,0,0,1,7,4.74l18.15,45.92a7.49,7.49,0,0,1-6,10.2H170.62a7.49,7.49,0,0,1-6-10.2ZM355,497H157v-6.86a8.21,8.21,0,0,1,8.2-8.2H170c.51,0,1,.06,1.54.06H340.44c.52,0,1,0,1.54-.06h4.82a8.21,8.21,0,0,1,8.2,8.2Z"/></svg>