<svg xmlns="http://www.w3.org/2000/svg" data-name="Layer 1" viewBox="0 0 512 512"><rect width="270" height="60.06" x="121" y="444.61" fill="#654a36" rx="10"/><path fill="#ddccbf" d="M234.5,240.44h-9.6l-2.09,15.37a599.84,599.84,0,0,1-44.52,159L167.1,440.47H344.9l-11.19-25.66a599.84,599.84,0,0,1-44.52-159l-2.09-15.37H234.5Z"/><circle cx="256" cy="193.2" r="54.05" fill="#9f7855"/><path fill="#070606" d="M381,436.94H350.07l-9.49-21.75a592.56,592.56,0,0,1-44-157l-2.09-15.37a5,5,0,0,0-.1-.56,61.55,61.55,0,1,0-76.86,0,5,5,0,0,0-.1.56l-2.09,15.37a592.56,592.56,0,0,1-44,157l-9.49,21.75H131a17.52,17.52,0,0,0-17.5,17.5V494.5A17.52,17.52,0,0,0,131,512H381a17.52,17.52,0,0,0,17.5-17.5V454.44A17.52,17.52,0,0,0,381,436.94ZM209.45,194.22A46.55,46.55,0,1,1,256,240.77,46.6,46.6,0,0,1,209.45,194.22Zm-24.28,227a607.59,607.59,0,0,0,45.07-161l1.21-8.88h1.62a61.3,61.3,0,0,0,45.86,0h1.62l1.21,8.88a607.59,607.59,0,0,0,45.07,161l6.62,15.16H178.55ZM383.5,494.5A2.5,2.5,0,0,1,381,497H131a2.5,2.5,0,0,1-2.5-2.5V454.44a2.51,2.51,0,0,1,2.5-2.5H381a2.51,2.51,0,0,1,2.5,2.5Z"/></svg>