<svg xmlns="http://www.w3.org/2000/svg" data-name="Layer 1" viewBox="0 0 512 512"><path fill="#654a36" d="M85.33,459.5H426a15,15,0,0,1,15,15v30a0,0,0,0,1,0,0H70.33a0,0,0,0,1,0,0v-30A15,15,0,0,1,85.33,459.5Z"/><path fill="#5b422b" d="M426,459.5H411a15,15,0,0,1,15,15v30h15v-30A15,15,0,0,0,426,459.5Z"/><polyline fill="#ddccbf" points="422.5 414.4 478.18 306.59 441.04 143.78 348.28 306.59 348.44 306.59 255.69 98.78 162.93 306.59 163.09 306.59 70.34 143.78 33.18 306.59 88.87 409.53 88.87 409.44 88.87 449.5"/><polygon fill="#ddccbf" points="148 306.43 154.59 291.67 70.34 143.78 66.05 162.58 148 306.43"/><polygon fill="#ddccbf" points="333.37 306.43 341.78 291.67 255.69 98.78 248.19 115.58 333.37 306.43"/><polygon fill="#c9ad90" points="441.04 143.78 430.33 162.58 463.18 306.59 407.5 414.4 88.87 447.92 88.87 449.5 422.5 414.4 478.18 306.59 441.04 143.78"/><polyline fill="#b18c6b" points="422.5 414.4 88.87 414.4 88.87 459.5 422.5 459.5 422.5 414.4"/><polygon fill="#a1784f" points="407.5 414.4 407.5 414.4 407.5 459.5 422.5 459.5 422.5 414.4 422.5 414.4 407.5 414.4"/><path fill="#9f7855" d="M88.87,414.39c31.31-48.73,94.25-67,166.81-67s135.52,18.29,166.82,67Z"/><path fill="#8a6743" d="M407.5,414.4h15c-31.3-48.73-94.25-67-166.82-67-2.51,0-5,0-7.5.07C317.57,348.69,377.28,367.36,407.5,414.4Z"/><circle cx="71.12" cy="133.79" r="40" fill="#654a36"/><path fill="#5b422b" d="M71.12,93.79a40.32,40.32,0,0,0-7.5.71,40,40,0,0,1,0,78.58,40,40,0,1,0,7.5-79.29Z"/><circle cx="440.88" cy="133.79" r="40" fill="#654a36"/><path fill="#5b422b" d="M440.88,93.79a40.32,40.32,0,0,0-7.5.71,40,40,0,0,1,0,78.58,40,40,0,1,0,7.5-79.29Z"/><circle cx="255.68" cy="89" r="40" fill="#654a36"/><path fill="#5b422b" d="M255.68,49a40.32,40.32,0,0,0-7.5.71,40,40,0,0,1,0,78.58A40,40,0,1,0,255.68,49Z"/><path fill="#070606" d="M456.67,178.58a47.53,47.53,0,1,0-41.35-4.79l-66.13,116-71-159a47.5,47.5,0,1,0-45,0l-71,159L96.23,174.08a47.47,47.47,0,1,0-41.48,4.3L25.87,304.92a7.51,7.51,0,0,0,.72,5.24L81.37,411.43v2.69h0v38.23A22.54,22.54,0,0,0,62.83,474.5v30a7.5,7.5,0,0,0,7.5,7.5H441a7.5,7.5,0,0,0,7.5-7.5v-30A22.53,22.53,0,0,0,430,452.36v-41l54.78-101.17a7.51,7.51,0,0,0,.72-5.24Zm-48.29-44.79a32.5,32.5,0,1,1,32.5,32.5A32.54,32.54,0,0,1,408.38,133.79ZM223.18,89a32.5,32.5,0,1,1,32.5,32.5A32.54,32.54,0,0,1,223.18,89ZM38.62,133.79a32.5,32.5,0,1,1,32.5,32.5A32.54,32.54,0,0,1,38.62,133.79ZM433.53,474.5V497H77.83V474.5a7.51,7.51,0,0,1,7.5-7.5H426A7.5,7.5,0,0,1,433.53,474.5Zm-26.92-52.6H415V452H96.37V421.9Zm-302.86-15c36.34-42.64,101.6-52,151.93-52s115.61,9.38,151.93,52ZM420,398.32c-15.41-18.6-36.46-32.95-62.8-42.73-28.07-10.42-62.22-15.71-101.5-15.71s-73.42,5.28-101.48,15.7c-26.36,9.79-47.42,24.15-62.85,42.77L41.12,305.51,69.48,181.25c.55,0,1.09,0,1.64,0a46.9,46.9,0,0,0,11.19-1.35l73.5,129a7.61,7.61,0,0,0,.89,1.81,7.48,7.48,0,0,0,6.22,3.32h.17a7.49,7.49,0,0,0,6.52-3.79,7.58,7.58,0,0,0,.82-2.13l77-172.41a46.81,46.81,0,0,0,16.58,0l77,172.41a7.29,7.29,0,0,0,.82,2.13,7.48,7.48,0,0,0,6.51,3.79h.17a7.5,7.5,0,0,0,6.23-3.32,7.61,7.61,0,0,0,.89-1.81l73.59-129.14a47.24,47.24,0,0,0,11.73,1.47l1,0L470.24,305.5Z"/></svg>