<svg xmlns="http://www.w3.org/2000/svg" data-name="Layer 1" viewBox="0 0 512 512"><path fill="#3c3b41" d="M165.2,473.15H346.8a15.7,15.7,0,0,1,15.7,15.7v14.36a0,0,0,0,1,0,0h-213a0,0,0,0,1,0,0V488.85A15.7,15.7,0,0,1,165.2,473.15Z"/><path fill="#8b8992" d="M322.3,397.28H189.7a15,15,0,0,0-13.95,9.49l-18.14,45.92a15,15,0,0,0,13.95,20.52H340.44a15,15,0,0,0,13.95-20.52l-18.14-45.92A15,15,0,0,0,322.3,397.28Z"/><rect width="130" height="30" x="191" y="184.27" fill="#3c3b41" rx="10.9"/><path fill="#c8c6cb" d="M181,115.83c0-41,33.58-74.13,75-74.13s75,33.07,75,74.09l-73.66,51.1Z"/><polyline fill="#8b8992" points="256 69.71 285.95 143.76 340.65 109.25 296.99 184.36 215.01 184.36 171.35 109.25 226 143.88 256 69.71"/><polyline fill="#8b8992" points="256 69.71 285.95 143.76 340.65 109.25 296.99 184.36 215.01 184.36 171.35 109.25 226 143.88 256 69.71"/><polyline fill="#8b8992" points="256 69.71 285.95 143.76 340.65 109.25 296.99 184.36 215.01 184.36 171.35 109.25 226 143.88 256 69.71"/><polygon fill="#8b8992" points="211 143.88 214.06 136.32 171.35 109.25 180.1 124.3 211 143.88"/><polygon fill="#8b8992" points="270.95 143.76 282.9 136.22 256 69.71 248.5 88.25 270.95 143.76"/><circle cx="256" cy="26.43" r="15" fill="#3c3b41"/><polygon fill="#c8c6cb" points="311.99 397.28 200.01 397.28 215.01 214.23 296.99 214.23 311.99 397.28"/><path fill="#070606" d="M359.81,471a22.48,22.48,0,0,0,1.56-19.72l-18.15-45.92a22.36,22.36,0,0,0-20.92-14.23h-3.4l-13.77-168h5a18.41,18.41,0,0,0,18.4-18.39v-8.21a18.42,18.42,0,0,0-18.4-18.4h0l37.06-63.75a7.48,7.48,0,0,0-9.75-10.49C332,71.2,306.94,45.06,274.7,37.63a22.5,22.5,0,1,0-37.4,0C205.07,45.06,180,71.2,174.61,103.82a7.48,7.48,0,0,0-9.75,10.49l37.06,63.75h0a18.42,18.42,0,0,0-18.4,18.4v8.21a18.41,18.41,0,0,0,18.4,18.39h5l-13.77,168h-3.4a22.36,22.36,0,0,0-20.92,14.23l-18.15,45.92A22.48,22.48,0,0,0,152.19,471,23.16,23.16,0,0,0,142,490.14V504.5a7.5,7.5,0,0,0,7.5,7.5h213a7.5,7.5,0,0,0,7.5-7.5V490.14A23.16,23.16,0,0,0,359.81,471ZM256,17.64a7.5,7.5,0,1,1-7.5,7.5A7.5,7.5,0,0,1,256,17.64Zm0,32.85c35.69,0,65,27.48,67.33,62.11l-33.79,21.32L263,68.19a7.49,7.49,0,0,0-13.9,0L222.42,134l-33.75-21.39C191,78,220.31,50.49,256,50.49Zm-62.74,82.82L222,151.51A7.49,7.49,0,0,0,233,148L256,91l23,56.87a7.51,7.51,0,0,0,11,3.53l28.85-18.21-26.08,44.87H219.27Zm8.64,74.75a3.4,3.4,0,0,1-3.4-3.39v-8.21a3.4,3.4,0,0,1,3.4-3.4h12a7,7,0,0,0,1.12.09h82a7,7,0,0,0,1.12-.09h12a3.4,3.4,0,0,1,3.4,3.4v8.21a3.4,3.4,0,0,1-3.4,3.39H297.75c-.25,0-.51,0-.76,0H215c-.25,0-.51,0-.76,0Zm102,183h-95.7l13.77-168h68.16ZM164.58,456.74l18.15-45.92a7.45,7.45,0,0,1,7-4.74H322.3a7.45,7.45,0,0,1,7,4.74l18.15,45.92a7.49,7.49,0,0,1-6,10.2H170.62a7.49,7.49,0,0,1-6-10.2ZM355,497H157v-6.86a8.21,8.21,0,0,1,8.2-8.2H170c.51,0,1,.06,1.54.06H340.44c.52,0,1,0,1.54-.06h4.82a8.21,8.21,0,0,1,8.2,8.2Z"/></svg>