<svg xmlns="http://www.w3.org/2000/svg" data-name="Layer 1" viewBox="0 0 512 512"><rect width="267.08" height="51.14" x="122.46" y="453.36" fill="#654a36" rx="10"/><path fill="#ddccbf" d="M340.43,453.36H171.57l12.2-42.89C198.7,356.55,203.18,290.93,197,235.8l-2.84-25.43H317.81L315,234.93c-6.33,55.7-1.82,121.91,13.36,176.37Z"/><path fill="#9f7855" d="M327,96.72v54.17H291.3V96.72H220.7v54.17H185V96.72h-34.1V199a11.37,11.37,0,0,0,11.37,11.37H349.76A11.37,11.37,0,0,0,361.13,199V96.72Z"/><path fill="#070606" d="M379.54,445.86H346.08L335.6,409.28C321,356.85,316.07,292,322.47,235.78l2-17.91h25.26A18.9,18.9,0,0,0,368.63,199V96.72a7.5,7.5,0,0,0-7.5-7.5H327a7.5,7.5,0,0,0-7.5,7.5v46.66H298.8V96.72a7.49,7.49,0,0,0-7.5-7.5H220.7a7.49,7.49,0,0,0-7.5,7.5v46.66H192.47V96.72a7.5,7.5,0,0,0-7.5-7.5h-34.1a7.5,7.5,0,0,0-7.5,7.5V199a18.9,18.9,0,0,0,18.87,18.87h25.24l2.09,18.76c6.22,55.69,1.35,119.93-13,171.78l-10.65,37.45H132.46a17.52,17.52,0,0,0-17.5,17.5V494.5a17.52,17.52,0,0,0,17.5,17.5H379.54A17.52,17.52,0,0,0,397,494.5V463.36A17.52,17.52,0,0,0,379.54,445.86Zm-217.3-243a3.88,3.88,0,0,1-3.87-3.87V104.22h19.1v46.66a7.5,7.5,0,0,0,7.5,7.5H220.7a7.5,7.5,0,0,0,7.5-7.5V104.22h55.6v46.66a7.5,7.5,0,0,0,7.5,7.5H327a7.5,7.5,0,0,0,7.5-7.5V104.22h19.1V199a3.88,3.88,0,0,1-3.87,3.87ZM191,412.47c14.86-53.66,19.89-120,13.48-177.5l-1.9-17.1H309.41l-1.85,16.21c-6.6,58-1.52,125,13.6,179.28l9.32,32.5h-149Zm191,82a2.5,2.5,0,0,1-2.5,2.5H132.46a2.5,2.5,0,0,1-2.5-2.5V463.36a2.5,2.5,0,0,1,2.5-2.5H379.54a2.5,2.5,0,0,1,2.5,2.5Z"/></svg>