<svg xmlns="http://www.w3.org/2000/svg" data-name="Layer 1" viewBox="0 0 512 512"><path fill="#3c3b41" d="M165.2,474.06H346.8a15.7,15.7,0,0,1,15.7,15.7v14.36a0,0,0,0,1,0,0h-213a0,0,0,0,1,0,0V489.76A15.7,15.7,0,0,1,165.2,474.06Z"/><path fill="#8b8992" d="M322.3,398.2H189.7a15,15,0,0,0-13.95,9.48l-18.14,45.93a15,15,0,0,0,13.95,20.51H340.44a15,15,0,0,0,13.95-20.51l-18.14-45.93A15,15,0,0,0,322.3,398.2Z"/><polygon fill="#c8c6cb" points="311.99 398.25 200.01 398.25 215.01 215.2 296.99 215.2 311.99 398.25"/><rect width="130" height="30" x="191" y="185.18" fill="#3c3b41" rx="10.9"/><path fill="#8b8992" d="M308.5,85.17v47.66H277.06V85.17H234.94v47.66H203.5V85.17h-30v90a10,10,0,0,0,10,10h145a10,10,0,0,0,10-10v-90Z"/><rect width="30" height="47.66" x="173.5" y="85.17" fill="#8b8992"/><rect width="15" height="47.66" x="262.06" y="85.17" fill="#8b8992"/><path fill="#070606" d="M359.81,471a22.48,22.48,0,0,0,1.56-19.72l-18.15-45.92a22.36,22.36,0,0,0-20.92-14.23h-3.41l-13.76-168h5a18.41,18.41,0,0,0,18.4-18.39v-8.21a17.9,17.9,0,0,0-.5-4.17h.5a17.52,17.52,0,0,0,17.5-17.5v-90a7.5,7.5,0,0,0-7.5-7.5h-30a7.5,7.5,0,0,0-7.5,7.5V125H284.56V84.79a7.49,7.49,0,0,0-7.5-7.5H234.94a7.49,7.49,0,0,0-7.5,7.5V125H211V84.79a7.5,7.5,0,0,0-7.5-7.5h-30a7.5,7.5,0,0,0-7.5,7.5v90a17.52,17.52,0,0,0,17.5,17.5h.5a17.9,17.9,0,0,0-.5,4.17v8.21a18.41,18.41,0,0,0,18.4,18.39h5l-13.76,168H189.7a22.36,22.36,0,0,0-20.92,14.23l-18.15,45.92A22.48,22.48,0,0,0,152.19,471,23.16,23.16,0,0,0,142,490.14V504.5a7.5,7.5,0,0,0,7.5,7.5h213a7.5,7.5,0,0,0,7.5-7.5V490.14A23.16,23.16,0,0,0,359.81,471ZM183.5,177.29a2.51,2.51,0,0,1-2.5-2.5V92.29h15v40.16a7.5,7.5,0,0,0,7.5,7.5h31.44a7.5,7.5,0,0,0,7.5-7.5V92.29h27.12v40.16a7.5,7.5,0,0,0,7.5,7.5H308.5a7.5,7.5,0,0,0,7.5-7.5V92.29h15v82.5a2.51,2.51,0,0,1-2.5,2.5Zm18.4,30.77a3.4,3.4,0,0,1-3.4-3.39v-8.21a3.4,3.4,0,0,1,3.4-3.4H310.1a3.4,3.4,0,0,1,3.4,3.4v8.21a3.4,3.4,0,0,1-3.4,3.39Zm101.94,183H208.16l13.76-168h68.16ZM164.58,456.74l18.15-45.92a7.45,7.45,0,0,1,7-4.74h9.44a8.46,8.46,0,0,0,.87.05H312a8.46,8.46,0,0,0,.87-.05h9.44a7.45,7.45,0,0,1,7,4.74l18.15,45.92a7.49,7.49,0,0,1-6,10.2H170.62a7.49,7.49,0,0,1-6-10.2ZM355,497H157v-6.86a8.21,8.21,0,0,1,8.2-8.2H170c.51,0,1,.06,1.54.06H340.44c.52,0,1,0,1.54-.06h4.82a8.21,8.21,0,0,1,8.2,8.2Z"/></svg>