<svg xmlns="http://www.w3.org/2000/svg" data-name="Layer 1" viewBox="0 0 512 512"><path fill="#9a4c0f" d="M47,474.5h65a0,0,0,0,1,0,0v15a15,15,0,0,1-15,15H62a15,15,0,0,1-15-15v-15A0,0,0,0,1,47,474.5Z"/><path fill="#71370a" d="M415,474.5h35a15,15,0,0,1,15,15v15a0,0,0,0,1,0,0H400a0,0,0,0,1,0,0v-15A15,15,0,0,1,415,474.5Z" transform="rotate(-180 432.5 489.5)"/><path fill="#9a4c0f" d="M415,474.5h35a15,15,0,0,1,15,15v15a0,0,0,0,1,0,0H400a0,0,0,0,1,0,0v-15A15,15,0,0,1,415,474.5Z" transform="rotate(-180 432.5 489.5)"/><line x1="374.5" x2="374.5" y1="285.3" y2="340.12" fill="none" stroke="#000" stroke-linecap="round" stroke-linejoin="round" stroke-width="15"/><line x1="425.28" x2="374.5" y1="360.78" y2="340.12" fill="none" stroke="#000" stroke-linecap="round" stroke-linejoin="round" stroke-width="15"/><line x1="134.5" x2="134.5" y1="394.8" y2="339.98" fill="none" stroke="#000" stroke-linecap="round" stroke-linejoin="round" stroke-width="15"/><line x1="83.72" x2="134.5" y1="319.32" y2="339.97" fill="none" stroke="#000" stroke-linecap="round" stroke-linejoin="round" stroke-width="15"/><rect width="497" height="270" x="7.5" y="204.55" fill="#e87512" rx="15"/><circle cx="374.5" cy="339.97" r="100" fill="#f6c56c"/><circle cx="134.5" cy="339.97" r="100" fill="#f6c56c"/><path fill="#3c3b41" d="M127 439.69V425a7.5 7.5 0 0 1 15 0v14.72zM142 240.25V255a7.5 7.5 0 1 1-15 0V240.25zM34.78 347.47H49.5a7.5 7.5 0 0 0 0-15H34.78zM234.22 347.47H219.5a7.5 7.5 0 0 1 0-15h14.72zM218.19 394.72l-12.89-7.11a7.5 7.5 0 0 1 7.24-13.14l12.91 7.12zM50.81 285.23l12.89 7.11a7.5 7.5 0 0 1-7.24 13.14l-12.91-7.12zM79.76 423.66l7.11-12.89A7.5 7.5 0 0 1 100 418l-7.12 12.9zM189.25 256.28l-7.12 12.9A7.5 7.5 0 1 1 169 261.93L176.13 249zM89.38 250.7L97 263.33a7.5 7.5 0 0 1-12.84 7.75l-7.61-12.62zM179.61 429.24L172 416.62a7.5 7.5 0 0 1 12.84-7.75l7.61 12.61zM223.77 294.86l-12.62 7.62a7.5 7.5 0 0 1-7.75-12.85L216 282zM45.24 385.08l12.61-7.61a7.5 7.5 0 0 1 7.75 12.85L53 397.93z"/><rect width="45" height="30" x="113.5" y="174.56" fill="#c2610c"/><rect width="45" height="30" x="353.5" y="174.56" fill="#c2610c"/><path fill="#171719" d="M142,339.36a1,1,0,0,1,0-.17c0-.16-.05-.33-.08-.49s0-.17,0-.26a2.1,2.1,0,0,0-.06-.24,7.34,7.34,0,0,0-.87-2.1,7.5,7.5,0,0,0-2.59-2.57l-.27-.16-.26-.13-.43-.19,0,0L86.54,312.37a7.5,7.5,0,0,0-5.65,13.9L127,345V394.8a7.5,7.5,0,0,0,15,0V340A5.68,5.68,0,0,0,142,339.36Z"/><path fill="#3c3b41" d="M432.45,421.48l-7.61-12.61A7.5,7.5,0,0,0,412,416.62l7.61,12.62Z"/><path fill="#171719" d="M367,340.74a1,1,0,0,1,0,.17c0,.16,0,.32.08.49a2.17,2.17,0,0,0,0,.25,1.83,1.83,0,0,0,.06.25,7.52,7.52,0,0,0,3.46,4.67l.27.16.26.13.42.19,0,0,50.79,20.66a7.57,7.57,0,0,0,2.82.55,7.5,7.5,0,0,0,2.83-14.45L382,335.08V285.3a7.5,7.5,0,1,0-15,0v54.85A5.83,5.83,0,0,0,367,340.74Z"/><path fill="#3c3b41" d="M382 439.69V425a7.5 7.5 0 0 0-15 0v14.72zM382 240.25V255a7.5 7.5 0 1 1-15 0V240.25zM274.78 347.47H289.5a7.5 7.5 0 0 0 0-15H274.78zM474.22 347.47H459.5a7.5 7.5 0 0 1 0-15h14.72zM458.19 394.72l-12.89-7.11a7.5 7.5 0 0 1 7.24-13.14l12.91 7.12zM290.81 285.23l12.89 7.11a7.5 7.5 0 0 1-7.24 13.14l-12.91-7.12zM332.88 430.92L340 418a7.5 7.5 0 0 0-13.13-7.25l-7.11 12.89zM429.25 256.28l-7.12 12.9A7.5 7.5 0 1 1 409 261.93L416.13 249zM329.38 250.7L337 263.33a7.5 7.5 0 0 1-12.84 7.75l-7.61-12.62zM463.77 294.86l-12.62 7.62a7.5 7.5 0 0 1-7.75-12.85L456 282zM293 397.93l12.6-7.61a7.5 7.5 0 0 0-7.75-12.85l-12.61 7.61z"/><path fill="#9a4c0f" d="M83.5 129.54h105a15 15 0 0 1 15 15v30a0 0 0 0 1 0 0H68.5a0 0 0 0 1 0 0v-30A15 15 0 0 1 83.5 129.54zM323.5 129.54h105a15 15 0 0 1 15 15v30a0 0 0 0 1 0 0h-135a0 0 0 0 1 0 0v-30A15 15 0 0 1 323.5 129.54z"/><path d="M504.5,197H406V182h37.5a7.5,7.5,0,0,0,7.5-7.5v-30A22.53,22.53,0,0,0,428.5,122h-105a22.53,22.53,0,0,0-22.5,22.5v30a7.5,7.5,0,0,0,7.5,7.5H346v15H166V182h37.5a7.5,7.5,0,0,0,7.5-7.5v-30A22.53,22.53,0,0,0,188.5,122H83.5A22.53,22.53,0,0,0,61,144.54v30a7.5,7.5,0,0,0,7.5,7.5H106v15H7.5a7.5,7.5,0,0,0-7.5,7.5v270A7.5,7.5,0,0,0,7.5,482h32V504.5A7.5,7.5,0,0,0,47,512h65a7.5,7.5,0,0,0,7.5-7.5V482h273V504.5A7.5,7.5,0,0,0,400,512h65a7.5,7.5,0,0,0,7.5-7.5V482h32a7.5,7.5,0,0,0,7.5-7.5v-270A7.5,7.5,0,0,0,504.5,197ZM316,167v-22.5a7.51,7.51,0,0,1,7.5-7.5h105a7.51,7.51,0,0,1,7.5,7.5V167Zm75,15v15H361v-15ZM76,167v-22.5a7.51,7.51,0,0,1,7.5-7.5h105a7.51,7.51,0,0,1,7.5,7.5V167Zm75,15v15H121v-15ZM104.5,497h-50V482h50Zm353,0h-50V482h50ZM497,467H465.81c-.27,0-.54,0-.81,0H400c-.27,0-.54,0-.81,0H112.81c-.27,0-.54,0-.81,0H47c-.27,0-.54,0-.81,0H15V212h98.13l.37,0h45l.37,0H353.13l.37,0h45l.37,0H497ZM142,339.36a1,1,0,0,1,0-.17c0-.16-.05-.33-.08-.49s0-.17,0-.26a2.1,2.1,0,0,0-.06-.24,7.34,7.34,0,0,0-.87-2.1,7.5,7.5,0,0,0-2.59-2.57l-.27-.16-.26-.13-.43-.19,0,0L86.54,312.37a7.5,7.5,0,0,0-5.65,13.9L127,345V394.8a7.5,7.5,0,0,0,15,0V340A5.68,5.68,0,0,0,142,339.36Zm177.56-91.73a4.51,4.51,0,0,0-.57.31,5.07,5.07,0,0,0-.54.36,108.21,108.21,0,0,0-37.75,39.28c-.1.15-.2.3-.29.46s-.13.26-.19.39a107.32,107.32,0,0,0,2,106.52c.1.19.2.38.31.57s.17.24.25.36a108.45,108.45,0,0,0,39.39,37.93,5.35,5.35,0,0,0,.47.29l.31.14a107.33,107.33,0,0,0,106.77-2L430,432c.19-.11.36-.23.54-.35a108.29,108.29,0,0,0,37.83-39.43c.07-.11.15-.21.21-.32s.13-.26.19-.39a107.28,107.28,0,0,0-2-106.52q-.13-.28-.3-.57c-.11-.19-.24-.36-.36-.53a108.26,108.26,0,0,0-39.27-37.75,4.8,4.8,0,0,0-.48-.3c-.12-.07-.26-.13-.39-.19a107.26,107.26,0,0,0-106.51,2ZM382,255v-7.19a91.78,91.78,0,0,1,30.47,7.85l-3.47,6.3a7.5,7.5,0,0,0,13.13,7.25l3.46-6.28a93.5,93.5,0,0,1,23.94,23l-6.13,3.69a7.5,7.5,0,1,0,7.75,12.85l6.15-3.71a91.67,91.67,0,0,1,9.39,33.7H459.5a7.5,7.5,0,0,0,0,15h7.19A91.66,91.66,0,0,1,458.84,378l-6.3-3.48a7.5,7.5,0,0,0-7.24,13.14l6.27,3.46a93.26,93.26,0,0,1-23,23.93l-3.7-6.13A7.5,7.5,0,0,0,412,416.62l3.71,6.15a91.73,91.73,0,0,1-33.71,9.4V425a7.5,7.5,0,0,0-15,0v7.2a91.78,91.78,0,0,1-30.47-7.85L340,418a7.5,7.5,0,0,0-13.13-7.25L323.41,417a93.29,93.29,0,0,1-23.94-23l6.13-3.69a7.5,7.5,0,0,0-7.75-12.85l-6.15,3.71a91.72,91.72,0,0,1-9.39-33.71h7.19a7.5,7.5,0,0,0,0-15h-7.19A91.6,91.6,0,0,1,290.16,302l6.3,3.48a7.5,7.5,0,0,0,7.24-13.14l-6.27-3.46a93.26,93.26,0,0,1,23-23.93l3.7,6.13A7.5,7.5,0,0,0,337,263.33l-3.71-6.15a91.73,91.73,0,0,1,33.71-9.4V255a7.5,7.5,0,1,0,15,0ZM226.54,284.43c-.11-.19-.24-.36-.36-.53a108.26,108.26,0,0,0-39.27-37.75,4.8,4.8,0,0,0-.48-.3c-.12-.07-.26-.13-.39-.19a107.26,107.26,0,0,0-106.51,2,4.51,4.51,0,0,0-.57.31,5.07,5.07,0,0,0-.54.36,108.21,108.21,0,0,0-37.75,39.28c-.1.15-.2.3-.29.46s-.13.26-.19.39a107.32,107.32,0,0,0,2,106.52c.1.19.2.38.31.57s.17.24.25.36A108.45,108.45,0,0,0,82.1,433.81a5.35,5.35,0,0,0,.47.29l.31.14a107.33,107.33,0,0,0,106.77-2L190,432c.19-.11.36-.23.54-.35a108.29,108.29,0,0,0,37.83-39.43c.07-.11.15-.21.21-.32s.13-.26.19-.39a107.28,107.28,0,0,0-2-106.52Q226.71,284.72,226.54,284.43Zm-7,63h7.19A91.66,91.66,0,0,1,218.84,378l-6.3-3.48a7.5,7.5,0,0,0-7.24,13.14l6.27,3.46a93.26,93.26,0,0,1-23,23.93l-3.7-6.13A7.5,7.5,0,0,0,172,416.62l3.71,6.15a91.73,91.73,0,0,1-33.71,9.4V425a7.5,7.5,0,0,0-15,0v7.2a91.78,91.78,0,0,1-30.47-7.85L100,418a7.5,7.5,0,0,0-13.13-7.25L83.41,417a93.29,93.29,0,0,1-23.94-23l6.13-3.69a7.5,7.5,0,0,0-7.75-12.85l-6.15,3.71a91.72,91.72,0,0,1-9.39-33.71H49.5a7.5,7.5,0,0,0,0-15H42.31A91.6,91.6,0,0,1,50.16,302l6.3,3.48a7.5,7.5,0,0,0,7.24-13.14l-6.27-3.46a93.26,93.26,0,0,1,23-23.93l3.7,6.13A7.5,7.5,0,0,0,97,263.33l-3.71-6.15a91.73,91.73,0,0,1,33.71-9.4V255a7.5,7.5,0,1,0,15,0v-7.19a91.78,91.78,0,0,1,30.47,7.85l-3.47,6.3a7.5,7.5,0,0,0,13.13,7.25l3.46-6.28a93.5,93.5,0,0,1,23.94,23l-6.13,3.69a7.5,7.5,0,1,0,7.75,12.85l6.15-3.71a91.67,91.67,0,0,1,9.39,33.7H219.5a7.5,7.5,0,0,0,0,15ZM367,285.3v54.85a5.83,5.83,0,0,0,0,.59,1,1,0,0,1,0,.17c0,.16,0,.32.08.49a2.17,2.17,0,0,0,0,.25,1.83,1.83,0,0,0,.06.25,7.52,7.52,0,0,0,3.46,4.67l.27.16.26.13.42.19,0,0,50.79,20.66a7.57,7.57,0,0,0,2.82.55,7.5,7.5,0,0,0,2.83-14.45L382,335.08V285.3a7.5,7.5,0,1,0-15,0Z"/></svg>