<svg xmlns="http://www.w3.org/2000/svg" data-name="Layer 1" viewBox="0 0 512 512"><path fill="#c8c6cb" d="M52,242.61l-7.21,25.61-26-7.34a5,5,0,0,0-6.17,3.46L8,280.79A5,5,0,0,0,11.43,287l26.05,7.34-7.22,25.61a5,5,0,0,0,3.45,6.17l15.92,4.49a5,5,0,0,0,6.17-3.46L63,301.5l33.89,9.55L104.26,285l-33.89-9.56,7.22-25.6a5,5,0,0,0-3.46-6.17l-15.92-4.49A5,5,0,0,0,52,242.61Z"/><path fill="#8b8992" d="M187.74,282.2l-21.63,76.69-15-.07-7.27,0-4.8,0-10.28-.05-25.53-.12a15,15,0,0,1-14.37-19.07l8-28.47L104.26,285l7.9-28A14.87,14.87,0,0,1,119.1,248c.28-.16.57-.32.87-.46s.52-.25.79-.36l.23-.1c.26-.11.52-.2.79-.29s.59-.19.88-.27a8.56,8.56,0,0,1,1-.24l.27,0a5.25,5.25,0,0,1,.55-.09c.33-.05.66-.09,1-.11l.34,0c.27,0,.55,0,.82,0a14.9,14.9,0,0,1,8,2.36l12.77,8.14,8.37,5.33,13,8.31Z"/><path fill="#78777f" d="M134.66,248.38A14.93,14.93,0,0,0,119.1,248l.56.34,53.08,33.82-21.6,76.62,15,.07,21.62-76.69Z"/><path fill="#3c3b41" d="M168.85,270.16l-2.29,8.1-22.69,80.52-.39,1.38a7.48,7.48,0,0,1-4.94,5.1l.53-6.5-10.28-.05a7.13,7.13,0,0,1,.25-2.62l14.44-51.23,9.87-35,1.83-6.5a6.86,6.86,0,0,1,.62-1.5Z"/><path fill="#3c3b41" d="M373.8,385.27H550.29a15.27,15.27,0,0,1,15.27,15.27v14a0,0,0,0,1,0,0h-207a0,0,0,0,1,0,0v-14A15.27,15.27,0,0,1,373.8,385.27Z" transform="rotate(-74.26 462.035 399.903)"/><path fill="#8b8992" d="M396.1,307.6,357.6,444.18a5,5,0,0,0,1.79,5.34l43.45,33.06A14.61,14.61,0,0,0,425.75,475l44.53-158a14.59,14.59,0,0,0-15.54-18.47L400.41,304A5,5,0,0,0,396.1,307.6Z"/><rect width="126.36" height="29.22" x="128.07" y="308.96" fill="none" stroke="#070606" stroke-linecap="round" stroke-linejoin="round" stroke-width="15" rx="10.6" transform="rotate(-74.26 191.24 323.565)"/><polygon fill="#c8c6cb" points="391.61 323.51 362.08 428.27 194.46 365.87 216.08 289.18 391.61 323.51"/><path fill="#ddccbf" d="M230.24,51.58h-26.6V24.51a5,5,0,0,0-5-5h-17.1a5,5,0,0,0-5,5V51.58h-26.6a5,5,0,0,0-5,5V73.12a5,5,0,0,0,5,5h26.6v35.21h27.1V78.12h26.6a5,5,0,0,0,5-5V56.58A5,5,0,0,0,230.24,51.58Z"/><path fill="#9f7855" d="M232.75,113.33H147a15,15,0,0,0-14.45,19l16.77,60.59H229l18.15-60.26A15,15,0,0,0,232.75,113.33Z"/><path fill="#654a36" d="M235.42,171.47H143.34l-4-14.53a7.23,7.23,0,0,1,2.6-.47h96.34a7.25,7.25,0,0,1,1.62.18h0Z"/><path fill="#5b422b" d="M239.88,156.65a7.25,7.25,0,0,0-1.62-.18h-15a7.25,7.25,0,0,1,1.62.18h0l-4.47,14.82h15l4.47-14.82Z"/><path fill="#654a36" d="M102,473.88H278.15a15.46,15.46,0,0,1,15.46,15.46v14.54a0,0,0,0,1,0,0h-207a0,0,0,0,1,0,0V489.34A15.46,15.46,0,0,1,102,473.88Z"/><path fill="#9f7855" d="M254.53,400.36H125.65a14.57,14.57,0,0,0-13.56,9.24L94.45,454.32a14.61,14.61,0,0,0,13.56,20H272.17a14.61,14.61,0,0,0,13.56-20L268.09,409.6A14.57,14.57,0,0,0,254.53,400.36Z"/><rect width="126.36" height="29.22" x="126.91" y="192.92" fill="#654a36" rx="10.6"/><polygon fill="#ddccbf" points="244.51 400.35 135.67 400.35 138.54 365.26 139.07 358.76 143.48 304.86 146.69 265.6 147.43 256.52 150.25 222.13 150.25 222.09 229.93 222.09 229.93 222.13 235.73 293.02 235.98 296.01 243.17 384 244.51 400.35"/><path fill="#070606" d="M506.84,297.22l-13.48-3.8a22.73,22.73,0,0,0-20.7,4.4,22.12,22.12,0,0,0-18.1-6.6l-47.83,4.84a22,22,0,0,0-19,16l-.84,3L243.33,287l-4.68-57.17h4.46a18.26,18.26,0,0,0,18.24-18.24V203a18.26,18.26,0,0,0-18.24-18.24h-3.47l5.24-17.39a7.56,7.56,0,0,0,.88-2.95l14.93-49.57a7.49,7.49,0,0,0-7.18-9.66H211.72V85h24.11a7.5,7.5,0,0,0,7.5-7.5V51a7.5,7.5,0,0,0-7.5-7.5H211.72V18.89a7.5,7.5,0,0,0-7.5-7.5H177.13a7.49,7.49,0,0,0-7.5,7.5V43.45H145.52A7.5,7.5,0,0,0,138,51V77.49a7.5,7.5,0,0,0,7.5,7.5h24.11v20.22h-41.8a7.5,7.5,0,0,0-7.23,9.5l14,50.56a7.38,7.38,0,0,0,.26.95L140,184.78h-1.77A18.27,18.27,0,0,0,120,203v8.52a18.26,18.26,0,0,0,18.24,18.24h4.46l-1.14,13.93-19.3-12.3A7.51,7.51,0,0,0,111,235.7L99.66,275.93l-19.45-5.49,6.54-23.2A7.5,7.5,0,0,0,81.56,238L56,230.79A7.48,7.48,0,0,0,46.77,236l-6.55,23.2-23.64-6.66a7.48,7.48,0,0,0-9.25,5.18L0,283.77A7.48,7.48,0,0,0,5.16,293l23.65,6.66-6.55,23.21a7.5,7.5,0,0,0,5.19,9.25L53,339.34a7.61,7.61,0,0,0,2,.29,7.51,7.51,0,0,0,7.22-5.47L68.79,311l19.45,5.48L76.9,356.66a7.51,7.51,0,0,0,7.18,9.54l47.44.22-2.18,26.64h-3.11a22,22,0,0,0-20.54,14L88.06,451.77a22.11,22.11,0,0,0,1.5,19.32A23,23,0,0,0,79.65,490V504.5a7.5,7.5,0,0,0,7.5,7.5h207a7.5,7.5,0,0,0,7.5-7.5V490a22.94,22.94,0,0,0-9.9-18.87,22.11,22.11,0,0,0,1.5-19.32l-17.64-44.72a22.16,22.16,0,0,0-1.86-3.67l79.79,29.71-.85,3a22,22,0,0,0,7.89,23.56l38.26,29.11a22.14,22.14,0,0,0,13.4,4.52,21.79,21.79,0,0,0,5.48-.7,22.77,22.77,0,0,0,15.36,14.56l13.48,3.8a7.5,7.5,0,0,0,9.25-5.18L512,306.48A7.51,7.51,0,0,0,506.84,297.22ZM153,70V58.45h24.11a7.5,7.5,0,0,0,7.5-7.5V26.39h12.09V51a7.5,7.5,0,0,0,7.5,7.5h24.11V70H204.22a7.5,7.5,0,0,0-7.5,7.5v27.72H184.63V77.49a7.5,7.5,0,0,0-7.5-7.5Zm-15.33,50.22H243.42l-10.87,36.08H147.68ZM228,171.29,224,184.78H155.56l-3.73-13.49Zm-89.81,43.49a3.25,3.25,0,0,1-3.24-3.24V203a3.25,3.25,0,0,1,3.24-3.24H243.11a3.25,3.25,0,0,1,3.24,3.24v8.52a3.24,3.24,0,0,1-3.24,3.24ZM237,393.05H144.39l13.35-163.26H223.6l5.24,64c0,.08,0,.17,0,.25l7.39,90.4,0,.29ZM65.64,294.48a7.5,7.5,0,0,0-9.25,5.19l-6.54,23.2-11.11-3.13,6.54-23.2a7.51,7.51,0,0,0-5.19-9.26l-23.64-6.66L19.73,269l23.64,6.66a7.5,7.5,0,0,0,9.26-5.18l6.54-23.2,11.11,3.13-6.54,23.2a7.5,7.5,0,0,0,5.18,9.26l26.67,7.51L92.31,302Zm65.42,56.94-37-.18,10.68-37.88,0-.07,7.35-26.08v0l10.63-37.69,17.47,11.13-6.71,82.05ZM286.69,490v7h-192v-7a8,8,0,0,1,8-8H278.73A8,8,0,0,1,286.69,490Zm-7.35-32.69a7.06,7.06,0,0,1-.74,6.63,7,7,0,0,1-5.85,3.1H108.59a7.11,7.11,0,0,1-6.58-9.73l17.64-44.72a7,7,0,0,1,6.58-4.49H255.11a7,7,0,0,1,6.59,4.49Zm78.31-38.67L250.84,378.84l-6.24-76.36,138.16,27ZM418.82,474A7.12,7.12,0,0,1,408,476.81l-38.25-29.1a7.05,7.05,0,0,1-2.54-7.56l35-124a7.05,7.05,0,0,1,6.11-5.12l47.82-4.84c.26,0,.51,0,.76,0a7,7,0,0,1,5.42,2.55,6.94,6.94,0,0,1,1.59,5.59Zm24.63,20.5-6.26-1.76a7.79,7.79,0,0,1-5.37-9.59l1.27-4.49c.17-.47.32-.95.46-1.43l44.54-158c.13-.48.25-1,.35-1.45l1.27-4.5h0a7.78,7.78,0,0,1,7.48-5.66,7.6,7.6,0,0,1,2.1.29l6.26,1.77Z"/></svg>